<svg width="26" height="25" viewBox="0 0 26 25" fill="none" xmlns="http://www.w3.org/2000/svg">
<path d="M16.8341 13.4966H5.66406C5.11406 13.4966 4.66406 13.0466 4.66406 12.4966C4.66406 11.9466 5.11406 11.4966 5.66406 11.4966H16.8341L11.9541 6.61656C11.5641 6.22656 11.5641 5.59656 11.9541 5.20656C12.3441 4.81656 12.9741 4.81656 13.3641 5.20656L19.9541 11.7966C20.3441 12.1866 20.3441 12.8166 19.9541 13.2066L13.3641 19.7966C13.1773 19.9839 12.9236 20.0891 12.6591 20.0891C12.3946 20.0891 12.1409 19.9839 11.9541 19.7966C11.5641 19.4066 11.5641 18.7666 11.9541 18.3766L16.8341 13.4966Z" fill="white"/>
</svg>
