<svg width="16" height="16" viewBox="0 0 16 16" fill="none" xmlns="http://www.w3.org/2000/svg">
<path d="M12.17 9.40281H1C0.45 9.40281 0 8.95281 0 8.40281C0 7.85281 0.45 7.40281 1 7.40281H12.17L7.29 2.52281C6.9 2.13281 6.9 1.50281 7.29 1.11281C7.68 0.722813 8.31 0.722813 8.7 1.11281L15.29 7.70281C15.68 8.09281 15.68 8.72281 15.29 9.11281L8.7 15.7028C8.5132 15.8901 8.2595 15.9953 7.995 15.9953C7.7305 15.9953 7.4768 15.8901 7.29 15.7028C6.9 15.3128 6.9 14.6728 7.29 14.2828L12.17 9.40281Z" fill="#2C71F0"/>
</svg>
