<svg width="16" height="16" viewBox="0 0 16 16" fill="none" xmlns="http://www.w3.org/2000/svg">
<path d="M3.83 7.23781H15C15.55 7.23781 16 7.68781 16 8.23781C16 8.78781 15.55 9.23781 15 9.23781H3.83L8.71 14.1178C9.1 14.5078 9.1 15.1378 8.71 15.5278C8.32 15.9178 7.69 15.9178 7.3 15.5278L0.709999 8.93781C0.319999 8.54781 0.319999 7.91781 0.709999 7.52781L7.3 0.937813C7.4868 0.750513 7.7405 0.645313 8.005 0.645313C8.2695 0.645313 8.5232 0.750513 8.71 0.937813C9.1 1.32781 9.1 1.96781 8.71 2.35781L3.83 7.23781Z" fill="#2C71F0"/>
</svg>
