<svg width="232" height="152" viewBox="0 0 232 152" fill="none" xmlns="http://www.w3.org/2000/svg">
<mask id="mask0_16_227" style="mask-type:luminance" maskUnits="userSpaceOnUse" x="0" y="0" width="232" height="155">
<path d="M224.354 0.60083H8.55558C4.33673 0.60083 0.916687 4.02088 0.916687 8.23972V146.695C0.916687 150.913 4.33673 154.333 8.55558 154.333H224.354C228.573 154.333 231.993 150.913 231.993 146.695V8.23972C231.993 4.02088 228.573 0.60083 224.354 0.60083Z" fill="white"/>
</mask>
<g mask="url(#mask0_16_227)">
<path d="M186.089 19.7852H47.5259C39.0882 19.7852 32.2481 26.6253 32.2481 35.0629V121.433C32.2481 129.871 39.0882 136.711 47.5259 136.711H186.089C194.526 136.711 201.366 129.871 201.366 121.433V35.0629C201.366 26.6253 194.526 19.7852 186.089 19.7852Z" stroke="black" stroke-width="0.763889"/>
<path d="M32.3283 33.2949H201.303" stroke="black" stroke-width="0.763889"/>
<path d="M169.228 30.005C170.951 30.005 172.348 28.6593 172.348 26.9992C172.348 25.3391 170.951 23.9934 169.228 23.9934C167.505 23.9934 166.108 25.3391 166.108 26.9992C166.108 28.6593 167.505 30.005 169.228 30.005Z" fill="#F78400" stroke="black" stroke-width="0.763889"/>
<path d="M187.948 30.005C189.671 30.005 191.068 28.6593 191.068 26.9992C191.068 25.3391 189.671 23.9934 187.948 23.9934C186.225 23.9934 184.828 25.3391 184.828 26.9992C184.828 28.6593 186.225 30.005 187.948 30.005Z" fill="#FCEB64" stroke="black" stroke-width="0.763889"/>
<path d="M178.588 30.005C180.311 30.005 181.708 28.6593 181.708 26.9992C181.708 25.3391 180.311 23.9934 178.588 23.9934C176.864 23.9934 175.467 25.3391 175.467 26.9992C175.467 28.6593 176.864 30.005 178.588 30.005Z" fill="white" stroke="black" stroke-width="0.763889"/>
<path d="M139.361 116.77H124.827C121.19 116.77 118.241 119.719 118.241 123.356V136.873C118.241 140.51 121.19 143.459 124.827 143.459H139.361C142.998 143.459 145.946 140.51 145.946 136.873V123.356C145.946 119.719 142.998 116.77 139.361 116.77Z" fill="#001749" stroke="#001749" stroke-width="0.763889"/>
<path d="M138.353 116.77H123.82C120.183 116.77 117.234 119.719 117.234 123.356V136.873C117.234 140.51 120.183 143.459 123.82 143.459H138.353C141.99 143.459 144.939 140.51 144.939 136.873V123.356C144.939 119.719 141.99 116.77 138.353 116.77Z" fill="#1C4396" stroke="#001749" stroke-width="0.763889"/>
<path d="M136.804 127.001H131.175L130.844 125.382C130.765 124.996 130.413 124.714 130.002 124.714H125.42C124.951 124.714 124.56 125.081 124.56 125.542V127.632V133.252V135.529H137.469V127.622C137.469 127.283 137.175 127.001 136.804 127.001Z" fill="white" stroke="#001749" stroke-width="0.763889" stroke-miterlimit="10" stroke-linecap="round" stroke-linejoin="round"/>
<path d="M137.517 135.539H124.569L127.452 129.213C127.56 128.978 127.803 128.818 128.077 128.818H139.53C140.029 128.818 140.361 129.307 140.156 129.74L137.517 135.539Z" fill="white" stroke="#001749" stroke-width="0.763889" stroke-miterlimit="10" stroke-linecap="round" stroke-linejoin="round"/>
<path d="M169.92 116.77H155.386C151.749 116.77 148.801 119.719 148.801 123.356V136.873C148.801 140.51 151.749 143.459 155.386 143.459H169.92C173.557 143.459 176.506 140.51 176.506 136.873V123.356C176.506 119.719 173.557 116.77 169.92 116.77Z" fill="#001749" stroke="#001749" stroke-width="0.763889"/>
<path d="M168.913 116.77H154.379C150.742 116.77 147.793 119.719 147.793 123.356V136.873C147.793 140.51 150.742 143.459 154.379 143.459H168.913C172.55 143.459 175.498 140.51 175.498 136.873V123.356C175.498 119.719 172.55 116.77 168.913 116.77Z" fill="white" stroke="#001749" stroke-width="0.763889"/>
<path d="M161.826 135.873C166.313 135.873 169.95 135.053 169.95 134.043C169.95 133.032 166.313 132.213 161.826 132.213C157.339 132.213 153.702 133.032 153.702 134.043C153.702 135.053 157.339 135.873 161.826 135.873Z" fill="#1C4396" stroke="#001749" stroke-width="0.763889"/>
<path d="M161.826 132.213C166.313 132.213 169.95 131.393 169.95 130.383C169.95 129.372 166.313 128.553 161.826 128.553C157.339 128.553 153.702 129.372 153.702 130.383C153.702 131.393 157.339 132.213 161.826 132.213Z" fill="#1C4396" stroke="#001749" stroke-width="0.763889"/>
<path d="M161.826 128.553C166.313 128.553 169.95 127.733 169.95 126.723C169.95 125.712 166.313 124.893 161.826 124.893C157.339 124.893 153.702 125.712 153.702 126.723C153.702 127.733 157.339 128.553 161.826 128.553Z" fill="#1C4396" stroke="#001749" stroke-width="0.763889"/>
<path d="M55.4948 123.482C55.4948 119.843 58.4446 116.893 62.0834 116.893H108.123C111.76 116.893 114.708 119.842 114.708 123.479V137.089C114.708 140.726 111.76 143.674 108.123 143.674H62.0834C58.4446 143.674 55.4948 140.725 55.4948 137.086V123.482Z" fill="#001749" stroke="#001749" stroke-width="0.763889"/>
<path d="M55.4948 123.482C55.4948 119.843 58.4446 116.893 62.0834 116.893H107.039C110.676 116.893 113.625 119.842 113.625 123.479V137.089C113.625 140.726 110.676 143.674 107.039 143.674H62.0834C58.4446 143.674 55.4948 140.725 55.4948 137.086V123.482Z" fill="#F78400" stroke="#001749" stroke-width="0.763889"/>
<path d="M88.9368 136.785C88.8537 136.785 88.7859 136.718 88.7859 136.635V125.735C88.7859 125.664 88.8365 125.602 88.9072 125.587L90.751 125.213C90.8436 125.195 90.9315 125.266 90.9315 125.361V136.635C90.9315 136.718 90.8637 136.785 90.7806 136.785H88.9368Z" fill="white"/>
<path d="M64.2775 137.018C63.4955 137.018 62.7973 136.832 62.183 136.459C61.5685 136.086 61.0826 135.576 60.7252 134.93C60.3677 134.282 60.1889 133.548 60.1889 132.725C60.1889 131.903 60.3677 131.174 60.7252 130.538C61.0826 129.891 61.5685 129.387 62.183 129.025C62.7973 128.653 63.4955 128.465 64.2775 128.465C64.9031 128.465 65.4504 128.581 65.9196 128.811C66.2395 128.968 66.5178 129.168 66.7547 129.412C66.8574 129.518 67.0591 129.45 67.0591 129.303V125.537C67.0591 125.465 67.1095 125.404 67.1797 125.39L69.0234 125.016C69.1167 124.996 69.2039 125.068 69.2039 125.164V136.671C69.2039 136.754 69.1365 136.821 69.0533 136.821H67.4169C67.3452 136.821 67.2835 136.77 67.2693 136.7L67.1258 135.985C67.1001 135.857 66.9314 135.818 66.8432 135.914C66.6082 136.17 66.3227 136.401 65.9867 136.607C65.551 136.881 64.9813 137.018 64.2775 137.018ZM64.7299 135.176C65.4225 135.176 65.9867 134.951 66.4223 134.502C66.8691 134.041 67.0926 133.455 67.0926 132.742C67.0926 132.029 66.8691 131.448 66.4223 130.999C65.9867 130.538 65.4225 130.307 64.7299 130.307C64.0485 130.307 63.4843 130.533 63.0376 130.982C62.5907 131.431 62.3673 132.013 62.3673 132.725C62.3673 133.438 62.5907 134.025 63.0376 134.485C63.4843 134.946 64.0485 135.176 64.7299 135.176Z" fill="white"/>
<path d="M74.4334 137.019C73.5959 137.019 72.8531 136.844 72.2051 136.493C71.5572 136.142 71.049 135.649 70.6803 135.013C70.3117 134.377 70.1273 133.643 70.1273 132.809C70.1273 131.965 70.3061 131.213 70.6636 130.556C71.0321 129.898 71.5349 129.388 72.1716 129.026C72.8196 128.653 73.5788 128.467 74.4506 128.467C75.266 128.467 75.9869 128.642 76.6124 128.993C77.2378 129.344 77.7238 129.826 78.0695 130.441C78.4275 131.044 78.6061 131.718 78.6061 132.463C78.6061 132.584 78.6004 132.711 78.5889 132.842C78.5889 132.93 78.587 133.021 78.5813 133.114C78.5775 133.193 78.5116 133.253 78.4333 133.253H72.4169C72.3296 133.253 72.2602 133.328 72.2709 133.413C72.3397 133.974 72.558 134.419 72.9256 134.749C73.339 135.111 73.8356 135.293 74.4171 135.293C74.8525 135.293 75.2154 135.199 75.5057 135.013C75.7797 134.834 75.9888 134.61 76.133 134.342C76.1607 134.29 76.2132 134.257 76.2715 134.257H78.1516C78.2528 134.257 78.3254 134.354 78.291 134.449C78.1306 134.89 77.889 135.296 77.5672 135.671C77.2101 136.087 76.7632 136.417 76.2266 136.657C75.7014 136.899 75.1037 137.019 74.4334 137.019ZM74.4506 130.177C73.9254 130.177 73.4619 130.325 73.0597 130.621C72.6988 130.877 72.4549 131.256 72.3279 131.76C72.3048 131.851 72.3761 131.937 72.4705 131.937H76.2677C76.3545 131.937 76.4233 131.864 76.4128 131.778C76.3517 131.315 76.1559 130.94 75.8246 130.654C75.456 130.336 74.9977 130.177 74.4506 130.177Z" fill="white"/>
<path d="M83.7643 137.02C82.9259 137.02 82.183 136.844 81.5356 136.493C80.8873 136.142 80.3793 135.649 80.0107 135.013C79.6421 134.377 79.4578 133.643 79.4578 132.809C79.4578 131.965 79.6364 131.213 79.9935 130.556C80.363 129.898 80.8653 129.388 81.5022 129.026C82.1496 128.653 82.9096 128.467 83.7805 128.467C84.5959 128.467 85.3169 128.643 85.9423 128.993C86.5677 129.344 87.0537 129.827 87.4004 130.441C87.7575 131.044 87.936 131.719 87.936 132.463C87.936 132.585 87.9313 132.711 87.9198 132.842C87.9198 132.93 87.9169 133.021 87.9122 133.115C87.9083 133.193 87.8425 133.253 87.7642 133.253H81.7476C81.6597 133.253 81.591 133.328 81.6015 133.414C81.6702 133.974 81.8879 134.419 82.2556 134.75C82.669 135.112 83.1665 135.293 83.7471 135.293C84.1834 135.293 84.5463 135.199 84.8366 135.013C85.1097 134.834 85.3188 134.61 85.4639 134.342C85.4916 134.29 85.5441 134.257 85.6024 134.257H87.4825C87.5827 134.257 87.6553 134.354 87.6209 134.449C87.4605 134.89 87.2199 135.297 86.8971 135.671C86.54 136.087 86.0932 136.417 85.5575 136.658C85.0323 136.899 84.4346 137.02 83.7643 137.02ZM83.7805 130.177C83.2563 130.177 82.7922 130.325 82.3902 130.621C82.0293 130.877 81.7848 131.257 81.6578 131.76C81.6349 131.851 81.7065 131.937 81.8011 131.937H85.5976C85.6845 131.937 85.7542 131.864 85.7427 131.778C85.6826 131.315 85.4859 130.94 85.1545 130.655C84.786 130.337 84.3286 130.177 83.7805 130.177Z" fill="white"/>
<path d="M93.7416 136.787C94.5391 136.787 95.1856 136.153 95.1856 135.37C95.1856 134.587 94.5391 133.953 93.7416 133.953C92.9441 133.953 92.2976 134.587 92.2976 135.37C92.2976 136.153 92.9441 136.787 93.7416 136.787Z" fill="white"/>
<path fill-rule="evenodd" clip-rule="evenodd" d="M105.726 123.154C108.095 123.154 110.015 125.074 110.015 127.443C110.015 129.811 108.095 131.731 105.726 131.731H96.8745C96.844 131.731 96.8143 131.731 96.7838 131.73C95.6819 132.354 94.1933 133.192 94.1933 133.192V130.791C93.2126 130.004 92.5853 128.797 92.5853 127.443C92.5853 125.074 94.5055 123.154 96.8745 123.154H105.726Z" fill="#2C71F0"/>
<path d="M96.7838 131.73L96.7141 131.606L96.7475 131.587H96.7867L96.7838 131.73ZM94.1933 133.192L94.263 133.316L94.05 133.436V133.192H94.1933ZM94.1933 130.79L94.283 130.679L94.3365 130.722V130.79H94.1933ZM109.872 127.443C109.872 125.153 108.016 123.297 105.726 123.297V123.01C108.174 123.01 110.159 124.994 110.159 127.443H109.872ZM105.726 131.588C108.016 131.588 109.872 129.732 109.872 127.443H110.159C110.159 129.89 108.174 131.874 105.726 131.874V131.588ZM96.8745 131.588H105.726V131.874H96.8745V131.588ZM96.7867 131.587C96.8163 131.588 96.8449 131.588 96.8745 131.588V131.874C96.843 131.874 96.8125 131.874 96.7809 131.873L96.7867 131.587ZM94.1933 133.192C94.1226 133.067 94.1226 133.067 94.1226 133.067L94.1236 133.066C94.1245 133.066 94.1255 133.065 94.1274 133.064C94.1302 133.063 94.1341 133.06 94.1398 133.057C94.1512 133.051 94.1675 133.042 94.1885 133.03C94.2315 133.006 94.2945 132.97 94.3728 132.926C94.5294 132.838 94.75 132.714 95.0049 132.569C95.5148 132.283 96.1622 131.917 96.7141 131.606L96.8545 131.855C96.3035 132.166 95.6552 132.532 95.1453 132.82C94.8903 132.963 94.6697 133.087 94.5131 133.176C94.4348 133.22 94.3728 133.255 94.3298 133.279C94.3079 133.291 94.2916 133.301 94.2802 133.307C94.2744 133.31 94.2706 133.312 94.2677 133.314C94.2658 133.315 94.2649 133.315 94.2649 133.316C94.2639 133.316 94.263 133.316 94.263 133.316C94.263 133.316 94.263 133.316 94.1933 133.192ZM94.3365 130.79V133.192H94.05V130.79H94.3365ZM92.7285 127.443C92.7285 128.751 93.3348 129.919 94.283 130.679L94.1035 130.902C93.0914 130.09 92.442 128.842 92.442 127.443H92.7285ZM96.8745 123.297C94.5848 123.297 92.7285 125.153 92.7285 127.443H92.442C92.442 124.994 94.4263 123.01 96.8745 123.01V123.297ZM105.726 123.297H96.8745V123.01H105.726V123.297Z" fill="black"/>
<path d="M96.5823 130.09V130.234H96.7256H97.964H98.1072V130.09V128.142H100.008V130.09V130.234H100.152H101.399H101.542V130.09V124.803V124.66H101.399H100.152H100.008V124.803V126.707H98.1072V124.803V124.66H97.964H96.7256H96.5823V124.803V130.09ZM102.333 130.09V130.234H102.476H103.714H103.857V130.09V128.466H104.365L105.258 130.157L105.298 130.234H105.384H106.765H107.014L106.888 130.018L105.795 128.144C106.327 127.83 106.712 127.259 106.712 126.548C106.712 125.418 105.808 124.66 104.624 124.66H102.476H102.333V124.803V130.09ZM103.857 127.16V125.966H104.499C104.714 125.966 104.877 126.029 104.984 126.127C105.091 126.223 105.155 126.365 105.155 126.548C105.155 126.759 105.084 126.907 104.977 127.003C104.87 127.103 104.71 127.16 104.514 127.16H103.857Z" fill="white" stroke="#001749" stroke-width="0.286458"/>
<path d="M107.837 30.4631H93.3032C89.6661 30.4631 86.7177 33.4116 86.7177 37.0487V50.566C86.7177 54.2031 89.6661 57.1516 93.3032 57.1516H107.837C111.474 57.1516 114.422 54.2031 114.422 50.566V37.0487C114.422 33.4116 111.474 30.4631 107.837 30.4631Z" fill="#001749" stroke="#001749" stroke-width="0.763889"/>
<path d="M106.83 30.4631H92.2968C88.6597 30.4631 85.7112 33.4116 85.7112 37.0487V50.566C85.7112 54.2031 88.6597 57.1516 92.2968 57.1516H106.83C110.468 57.1516 113.416 54.2031 113.416 50.566V37.0487C113.416 33.4116 110.468 30.4631 106.83 30.4631Z" fill="#F78400" stroke="#001749" stroke-width="0.763889"/>
<path d="M105.28 40.6944H99.6522L99.3199 39.0754C99.2416 38.6894 98.8902 38.407 98.4796 38.407H93.8963C93.4275 38.407 93.0369 38.7741 93.0369 39.2354V41.3251V46.9448V49.2228H105.945V41.3157C105.945 40.9768 105.652 40.6944 105.28 40.6944Z" fill="white" stroke="#001749" stroke-width="0.763889" stroke-miterlimit="10" stroke-linecap="round" stroke-linejoin="round"/>
<path d="M105.993 49.2322H93.0455L95.9283 42.9065C96.0362 42.6712 96.2806 42.5112 96.5537 42.5112H108.006C108.505 42.5112 108.837 43.0007 108.632 43.4337L105.993 49.2322Z" fill="white" stroke="#001749" stroke-width="0.763889" stroke-miterlimit="10" stroke-linecap="round" stroke-linejoin="round"/>
<path d="M92.9325 59.0432H78.3988C74.7617 59.0432 71.8132 61.9917 71.8132 65.6288V79.1461C71.8132 82.7832 74.7617 85.7317 78.3988 85.7317H92.9325C96.5696 85.7317 99.518 82.7832 99.518 79.1461V65.6288C99.518 61.9917 96.5696 59.0432 92.9325 59.0432Z" fill="#001749" stroke="#001749" stroke-width="0.763889"/>
<path d="M91.9255 59.0432H77.3918C73.7547 59.0432 70.8062 61.9917 70.8062 65.6288V79.1461C70.8062 82.7832 73.7547 85.7317 77.3918 85.7317H91.9255C95.5626 85.7317 98.511 82.7832 98.511 79.1461V65.6288C98.511 61.9917 95.5626 59.0432 91.9255 59.0432Z" fill="#1C4396" stroke="#001749" stroke-width="0.763889"/>
<path d="M92.3865 64.6174H88.0612V79.4617H92.3865V64.6174Z" fill="white" stroke="#001749" stroke-width="0.763889"/>
<path d="M81.0542 74.5134H76.7289V79.4615H81.0542V74.5134Z" fill="white" stroke="#001749" stroke-width="0.763889"/>
<path d="M86.7203 69.5652H82.395V79.4617H86.7203V69.5652Z" fill="white" stroke="#001749" stroke-width="0.763889"/>
<path d="M139.042 30.3438H124.508C120.871 30.3438 117.923 33.2922 117.923 36.9293V50.4466C117.923 54.0837 120.871 57.0322 124.508 57.0322H139.042C142.679 57.0322 145.627 54.0837 145.627 50.4466V36.9293C145.627 33.2922 142.679 30.3438 139.042 30.3438Z" fill="#001749" stroke="#001749" stroke-width="0.763889"/>
<path d="M138.034 30.3438H123.501C119.864 30.3438 116.915 33.2922 116.915 36.9293V50.4466C116.915 54.0837 119.864 57.0322 123.501 57.0322H138.034C141.671 57.0322 144.62 54.0837 144.62 50.4466V36.9293C144.62 33.2922 141.671 30.3438 138.034 30.3438Z" fill="#1C4396" stroke="#001749" stroke-width="0.763889"/>
<path d="M139.521 44.9569C139.572 44.5979 139.604 44.2287 139.604 43.8597C139.604 43.4906 139.572 43.1215 139.521 42.7623L137.957 42.2237C137.812 41.725 137.605 41.2461 137.346 40.8073L138.061 39.3608C137.605 38.7723 137.056 38.2435 136.445 37.8047L134.944 38.493C134.488 38.2435 133.991 38.0441 133.473 37.9044L132.914 36.3982C132.541 36.3482 132.159 36.3184 131.775 36.3184C131.392 36.3184 131.009 36.3482 130.636 36.3982L130.077 37.9044C129.559 38.0441 129.062 38.2435 128.606 38.493L127.104 37.8047C126.493 38.2435 125.945 38.7723 125.49 39.3608L126.204 40.8073C125.945 41.2461 125.738 41.725 125.593 42.2237L124.029 42.7623C123.977 43.1215 123.947 43.4906 123.947 43.8597C123.947 44.2287 123.977 44.5979 124.029 44.9569L125.593 45.4956C125.738 45.9943 125.945 46.4732 126.204 46.9121L125.49 48.3585C125.945 48.9471 126.493 49.4758 127.104 49.9146L128.606 49.2264C129.062 49.4758 129.559 49.6752 130.077 49.8148L130.636 51.3211C131.009 51.3711 131.392 51.401 131.775 51.401C132.159 51.401 132.541 51.3711 132.914 51.3211L133.473 49.8148C133.991 49.6752 134.488 49.4758 134.944 49.2264L136.445 49.9146C137.056 49.4758 137.605 48.9471 138.061 48.3585L137.346 46.9121C137.605 46.4732 137.812 45.9943 137.957 45.4956L139.521 44.9569ZM131.775 47.7999C129.517 47.7999 127.685 46.0343 127.685 43.8597C127.685 41.6851 129.517 39.9194 131.775 39.9194C134.032 39.9194 135.865 41.6851 135.865 43.8597C135.865 46.0343 134.032 47.7999 131.775 47.7999Z" fill="#F78400" stroke="#001749" stroke-width="0.763889" stroke-miterlimit="10"/>
<path d="M123.67 59.0432H109.137C105.5 59.0432 102.551 61.9917 102.551 65.6288V79.1461C102.551 82.7832 105.5 85.7317 109.137 85.7317H123.67C127.308 85.7317 130.256 82.7832 130.256 79.1461V65.6288C130.256 61.9917 127.308 59.0432 123.67 59.0432Z" fill="#001749" stroke="#001749" stroke-width="0.763889"/>
<path d="M122.664 59.0432H108.13C104.493 59.0432 101.545 61.9917 101.545 65.6288V79.1461C101.545 82.7832 104.493 85.7317 108.13 85.7317H122.664C126.301 85.7317 129.25 82.7832 129.25 79.1461V65.6288C129.25 61.9917 126.301 59.0432 122.664 59.0432Z" fill="white" stroke="#001749" stroke-width="0.763889"/>
<path d="M123.745 72.4012C123.745 76.5661 120.241 79.9425 115.917 79.9425C111.594 79.9425 108.088 76.5661 108.088 72.4012C108.088 68.2362 111.594 64.8599 115.917 64.8599C120.241 64.8599 123.745 68.2362 123.745 72.4012ZM111.368 72.4012C111.368 74.8214 113.405 76.7832 115.917 76.7832C118.43 76.7832 120.466 74.8214 120.466 72.4012C120.466 69.9811 118.43 68.0191 115.917 68.0191C113.405 68.0191 111.368 69.9811 111.368 72.4012Z" fill="#F78400" stroke="#001749" stroke-width="0.763889"/>
<path fill-rule="evenodd" clip-rule="evenodd" d="M115.792 66.3134C115.852 66.3119 115.913 66.311 115.973 66.311C116.038 66.311 116.102 66.312 116.166 66.3138L116.158 66.5749C116.097 66.5731 116.035 66.5722 115.973 66.5722C115.915 66.5722 115.857 66.573 115.8 66.5745L115.792 66.3134ZM115.075 66.371C115.194 66.3551 115.313 66.3423 115.433 66.3326L115.456 66.5929C115.341 66.6022 115.226 66.6144 115.113 66.6297L115.075 66.371ZM116.55 66.3358C116.679 66.3468 116.807 66.3615 116.933 66.3799L116.893 66.6382C116.772 66.6206 116.65 66.6065 116.527 66.5959L116.55 66.3358ZM114.369 66.5056C114.485 66.4769 114.602 66.4513 114.721 66.4288L114.773 66.685C114.66 66.7065 114.548 66.7311 114.437 66.7586L114.369 66.5056ZM117.313 66.4461C117.439 66.4719 117.564 66.5013 117.688 66.5342L117.616 66.7859C117.498 66.7545 117.378 66.7262 117.257 66.7015L117.313 66.4461ZM113.683 66.7161C113.796 66.6749 113.908 66.6367 114.024 66.6015L114.106 66.8503C113.996 66.884 113.887 66.9207 113.78 66.9601L113.683 66.7161ZM118.056 66.644C118.178 66.6843 118.299 66.728 118.417 66.7751L118.314 67.0166C118.2 66.9715 118.085 66.9297 117.968 66.891L118.056 66.644ZM113.026 66.9998C113.133 66.9467 113.241 66.8964 113.351 66.849L113.461 67.0873C113.356 67.1327 113.253 67.1809 113.151 67.2317L113.026 66.9998ZM118.769 66.927C118.885 66.9812 118.999 67.0385 119.111 67.099L118.979 67.3267C118.871 67.2688 118.762 67.2139 118.651 67.162L118.769 66.927ZM112.406 67.3526C112.507 67.2883 112.608 67.2267 112.712 67.1678L112.849 67.3926C112.75 67.449 112.653 67.508 112.557 67.5696L112.406 67.3526ZM119.442 67.2905C119.55 67.3576 119.656 67.4277 119.76 67.5008L119.599 67.7115C119.5 67.6415 119.399 67.5744 119.295 67.5101L119.442 67.2905ZM111.831 67.77C111.923 67.6954 112.018 67.6232 112.113 67.5535L112.276 67.762C112.185 67.8288 112.095 67.8979 112.007 67.9694L111.831 67.77ZM120.063 67.729C120.163 67.808 120.259 67.8898 120.353 67.9742L120.168 68.1651C120.078 68.0842 119.985 68.0058 119.89 67.9302L120.063 67.729ZM121.259 69.0518C121.245 69.1228 121.176 69.1702 121.101 69.1577L119.9 68.953C119.827 68.9404 119.778 68.8727 119.79 68.8017C119.804 68.7307 119.873 68.6833 119.948 68.6958L121.015 68.8777L121.204 67.849C121.217 67.778 121.287 67.7306 121.361 67.7431C121.435 67.7557 121.484 67.8235 121.471 67.8945L121.259 69.0518ZM111.309 68.2463C111.391 68.1624 111.476 68.0806 111.563 68.0011L111.75 68.1909C111.666 68.267 111.585 68.3454 111.506 68.4259L111.309 68.2463ZM120.627 68.2358C120.715 68.3255 120.801 68.4178 120.884 68.5126L120.676 68.6808C120.597 68.5901 120.515 68.5016 120.43 68.4156L120.627 68.2358ZM110.844 68.7759C110.917 68.6836 110.991 68.5932 111.069 68.5049L111.276 68.6735C111.202 68.7581 111.13 68.8447 111.061 68.9332L110.844 68.7759ZM110.444 69.3522C110.505 69.2525 110.569 69.1546 110.636 69.0587L110.861 69.204C110.797 69.2958 110.736 69.3896 110.677 69.485L110.444 69.3522ZM110.113 69.968C110.162 69.8623 110.214 69.7581 110.269 69.6555L110.51 69.7757C110.457 69.8738 110.408 69.9735 110.36 70.0748L110.113 69.968ZM109.856 70.6159C109.893 70.5054 109.932 70.3962 109.975 70.2884L110.228 70.3816C110.187 70.4848 110.149 70.5894 110.115 70.6952L109.856 70.6159ZM109.676 71.2876C109.7 71.1738 109.727 71.061 109.757 70.9495L110.019 71.0145C109.99 71.1213 109.965 71.2292 109.943 71.3383L109.676 71.2876ZM109.577 71.9741C109.587 71.8584 109.6 71.7434 109.617 71.6295L109.885 71.6657C109.869 71.7748 109.857 71.8849 109.847 71.9959L109.577 71.9741ZM109.554 72.4941C109.554 72.4361 109.555 72.3781 109.557 72.3204L109.828 72.3276C109.826 72.3829 109.825 72.4385 109.825 72.4941C109.825 72.5499 109.826 72.6055 109.828 72.6608L109.557 72.668C109.555 72.6103 109.554 72.5523 109.554 72.4941ZM122.391 72.4941C122.391 72.5523 122.391 72.6103 122.389 72.668L122.118 72.6608C122.12 72.6055 122.121 72.5499 122.121 72.4941H122.391ZM109.617 73.3588C109.6 73.2449 109.587 73.13 109.577 73.0142L109.847 72.9925C109.857 73.1034 109.869 73.2135 109.885 73.3226L109.617 73.3588ZM122.369 73.0142C122.36 73.13 122.346 73.2449 122.329 73.3588L122.061 73.3226C122.077 73.2135 122.09 73.1034 122.099 72.9925L122.369 73.0142ZM109.757 74.0389C109.727 73.9274 109.7 73.8146 109.676 73.7007L109.943 73.6501C109.965 73.7591 109.99 73.867 110.019 73.9739L109.757 74.0389ZM122.27 73.7007C122.246 73.8146 122.219 73.9274 122.19 74.0389L121.927 73.9739C121.956 73.867 121.982 73.7591 122.004 73.6501L122.27 73.7007ZM122.09 74.3724C122.053 74.4829 122.014 74.5922 121.971 74.6999L121.718 74.6068C121.759 74.5035 121.796 74.399 121.832 74.2932L122.09 74.3724ZM109.975 74.6999C109.932 74.5922 109.893 74.4829 109.856 74.3724L110.115 74.2932C110.149 74.399 110.187 74.5035 110.228 74.6068L109.975 74.6999ZM110.269 75.3328C110.214 75.2303 110.162 75.1261 110.113 75.0204L110.36 74.9136C110.408 75.0148 110.457 75.1146 110.51 75.2127L110.269 75.3328ZM121.834 75.0204C121.784 75.1261 121.731 75.2303 121.677 75.3328L121.436 75.2127C121.489 75.1146 121.539 75.0148 121.586 74.9136L121.834 75.0204ZM110.636 75.9297C110.569 75.8338 110.505 75.7359 110.444 75.6362L110.677 75.5033C110.736 75.5988 110.797 75.6925 110.861 75.7844L110.636 75.9297ZM121.502 75.6362C121.441 75.7359 121.377 75.8338 121.31 75.9297L121.085 75.7844C121.149 75.6925 121.21 75.5988 121.269 75.5033L121.502 75.6362ZM111.069 76.4835C110.991 76.3952 110.917 76.3048 110.844 76.2124L111.061 76.0552C111.13 76.1437 111.202 76.2303 111.276 76.3148L111.069 76.4835ZM121.102 76.2124C121.03 76.3048 120.955 76.3952 120.877 76.4835L120.671 76.3148C120.744 76.2303 120.816 76.1437 120.885 76.0552L121.102 76.2124ZM120.637 76.7419C120.555 76.826 120.47 76.9078 120.382 76.9872L120.196 76.7974C120.28 76.7213 120.361 76.643 120.44 76.5625L120.637 76.7419ZM111.563 76.9872C111.476 76.9078 111.391 76.826 111.309 76.7419L111.506 76.5625C111.585 76.643 111.666 76.7213 111.75 76.7974L111.563 76.9872ZM120.114 77.2184C120.022 77.293 119.929 77.3652 119.833 77.4348L119.67 77.2262C119.762 77.1596 119.851 77.0904 119.939 77.0189L120.114 77.2184ZM112.113 77.4348C112.018 77.3652 111.923 77.293 111.831 77.2184L112.007 77.0189C112.095 77.0904 112.185 77.1596 112.276 77.2262L112.113 77.4348ZM112.712 77.8205C112.608 77.7616 112.507 77.7 112.406 77.6358L112.557 77.4187C112.653 77.4802 112.75 77.5393 112.849 77.5958L112.712 77.8205ZM119.539 77.6358C119.44 77.7 119.339 77.7616 119.234 77.8205L119.097 77.5958C119.196 77.5393 119.294 77.4802 119.388 77.4187L119.539 77.6358ZM113.351 78.1394C113.241 78.0919 113.133 78.0417 113.026 77.9886L113.151 77.7567C113.253 77.8075 113.356 77.8556 113.461 77.901L113.351 78.1394ZM118.919 77.9886C118.813 78.0417 118.706 78.0919 118.596 78.1394L118.485 77.901C118.59 77.8556 118.693 77.8075 118.795 77.7567L118.919 77.9886ZM114.024 78.3868C113.908 78.3516 113.796 78.3133 113.683 78.2722L113.78 78.0282C113.887 78.0677 113.996 78.1042 114.106 78.1379L114.024 78.3868ZM118.262 78.2722C118.151 78.3133 118.038 78.3516 117.923 78.3868L117.84 78.1379C117.95 78.1042 118.059 78.0677 118.166 78.0282L118.262 78.2722ZM114.721 78.5596C114.602 78.5371 114.485 78.5114 114.369 78.4827L114.437 78.2298C114.548 78.2573 114.66 78.2818 114.773 78.3034L114.721 78.5596ZM117.577 78.4827C117.461 78.5114 117.344 78.5371 117.225 78.5596L117.173 78.3034C117.287 78.2818 117.398 78.2573 117.509 78.2298L117.577 78.4827ZM115.433 78.6558C115.313 78.6461 115.194 78.6332 115.075 78.6173L115.113 78.3586C115.226 78.3739 115.341 78.3862 115.456 78.3955L115.433 78.6558ZM116.87 78.6173C116.753 78.6332 116.633 78.6461 116.513 78.6558L116.49 78.3955C116.606 78.3862 116.719 78.3739 116.833 78.3586L116.87 78.6173ZM115.973 78.6772C115.913 78.6772 115.852 78.6765 115.792 78.6749L115.8 78.4138C115.857 78.4153 115.915 78.4161 115.973 78.4161C116.031 78.4161 116.088 78.4153 116.146 78.4138L116.153 78.6749C116.094 78.6765 116.034 78.6772 115.973 78.6772Z" fill="white"/>
<path d="M77.5633 87.7429H63.0296C59.3925 87.7429 56.4441 90.6914 56.4441 94.3285V107.846C56.4441 111.483 59.3925 114.431 63.0296 114.431H77.5633C81.2004 114.431 84.1489 111.483 84.1489 107.846V94.3285C84.1489 90.6914 81.2004 87.7429 77.5633 87.7429Z" fill="#001749" stroke="#001749" stroke-width="0.763889"/>
<path d="M76.5563 87.7429H62.0226C58.3855 87.7429 55.4371 90.6914 55.4371 94.3285V107.846C55.4371 111.483 58.3855 114.431 62.0226 114.431H76.5563C80.1934 114.431 83.1419 111.483 83.1419 107.846V94.3285C83.1419 90.6914 80.1934 87.7429 76.5563 87.7429Z" fill="white" stroke="#001749" stroke-width="0.763889"/>
<path d="M69.5129 93.3677L69.5129 93.3677C66.959 93.3704 64.891 95.4429 64.8939 97.9968L64.9005 103.831C64.9034 106.385 66.9761 108.453 69.53 108.45L69.53 108.45C72.084 108.448 74.152 106.375 74.1491 103.821L74.1425 97.9871C74.1396 95.4332 72.0669 93.365 69.5129 93.3677Z" fill="#F78400" stroke="#001749" stroke-width="0.763889"/>
<path d="M71.3379 102.044C71.3311 100.988 70.5047 100.755 69.7162 100.564L69.7037 98.6289C70.319 98.69 70.7338 99.0491 70.7377 99.6554L71.2101 99.6525C71.204 98.7139 70.4439 98.2852 69.7011 98.2241L69.6986 97.8345L69.3162 97.8364L69.3187 98.2269C68.4043 98.2966 67.868 98.8705 67.8723 99.5427C67.8785 100.511 68.5999 100.737 69.3359 100.914L69.3496 103.038C68.6217 102.962 68.1688 102.503 68.1649 101.896L67.7075 101.898C67.7132 102.773 68.407 103.382 69.3523 103.457L69.3556 103.984L69.738 103.982L69.7347 103.454C70.7691 103.39 71.3426 102.78 71.3379 102.044ZM68.3298 99.5399C68.3268 99.092 68.6618 98.7005 69.3212 98.6308L69.3331 100.466C68.7846 100.31 68.3334 100.111 68.3298 99.5399ZM69.732 103.042L69.719 101.012C70.3349 101.168 70.8687 101.374 70.8732 102.075C70.8766 102.61 70.4366 102.988 69.732 103.042Z" fill="white"/>
<path d="M108.311 87.9016H93.7778C90.1407 87.9016 87.1922 90.8501 87.1922 94.4872V108.004C87.1922 111.642 90.1407 114.59 93.7778 114.59H108.311C111.949 114.59 114.897 111.642 114.897 108.004V94.4872C114.897 90.8501 111.949 87.9016 108.311 87.9016Z" fill="#001749" stroke="#001749" stroke-width="0.763889"/>
<path d="M107.304 87.9016H92.7704C89.1333 87.9016 86.1848 90.8501 86.1848 94.4872V108.004C86.1848 111.642 89.1333 114.59 92.7704 114.59H107.304C110.941 114.59 113.89 111.642 113.89 108.004V94.4872C113.89 90.8501 110.941 87.9016 107.304 87.9016Z" fill="#F78400" stroke="#001749" stroke-width="0.763889"/>
<path d="M100.345 93.9395C97.1829 93.9395 94.6124 96.4154 94.6124 99.4624C94.6124 103.716 99.0831 108.002 100.126 108.943C100.247 109.049 100.433 109.049 100.565 108.943C101.609 108.002 106.079 103.748 106.079 99.4624C106.079 96.4154 103.509 93.9395 100.345 93.9395ZM100.345 102.225C98.7202 102.225 97.4025 100.955 97.4025 99.3993C97.4025 97.8334 98.7202 96.5739 100.335 96.5739C101.96 96.5739 103.267 97.8439 103.267 99.3993C103.279 100.955 101.972 102.225 100.345 102.225Z" fill="white" stroke="#001749" stroke-width="0.763889" stroke-miterlimit="10"/>
<path d="M123.779 1.64429H109.246C105.608 1.64429 102.66 4.59275 102.66 8.22986V21.7472C102.66 25.3843 105.608 28.3328 109.246 28.3328H123.779C127.416 28.3328 130.365 25.3843 130.365 21.7472V8.22986C130.365 4.59275 127.416 1.64429 123.779 1.64429Z" fill="#001749" stroke="#001749" stroke-width="0.763889"/>
<path d="M122.772 1.64429H108.238C104.601 1.64429 101.653 4.59275 101.653 8.22986V21.7472C101.653 25.3843 104.601 28.3328 108.238 28.3328H122.772C126.409 28.3328 129.357 25.3843 129.357 21.7472V8.22986C129.357 4.59275 126.409 1.64429 122.772 1.64429Z" fill="white" stroke="#001749" stroke-width="0.763889"/>
<path d="M118.85 17.9328C118.398 17.7363 117.926 17.586 117.442 17.4842C117.547 17.4463 117.65 17.4049 117.753 17.3605C118.637 16.9708 119.363 16.3109 119.821 15.4823C120.278 14.6539 120.44 13.7031 120.283 12.7766C120.125 11.8501 119.657 10.9994 118.949 10.356C118.24 9.71251 117.333 9.31204 116.366 9.21636C115.399 9.12059 114.427 9.33505 113.598 9.82642C112.77 10.3178 112.132 11.0589 111.784 11.9352C111.434 12.8116 111.394 13.7746 111.668 14.6754C111.942 15.5763 112.515 16.365 113.299 16.9198C113.322 16.9284 113.344 16.9384 113.367 16.9462L113.346 16.952C113.666 17.1728 114.014 17.3518 114.383 17.4842C112.709 17.8275 111.223 18.7539 110.211 20.0869C109.149 19.0211 108.435 17.678 108.156 16.2239C107.876 14.7698 108.045 13.2686 108.64 11.9059C109.235 10.5433 110.231 9.37916 111.504 8.55751C112.777 7.73583 114.271 7.29276 115.802 7.28312C117.333 7.27347 118.833 7.69767 120.118 8.50317C121.401 9.30879 122.412 10.4603 123.026 11.8153C123.639 13.1703 123.828 14.6693 123.569 16.1268C123.309 17.5843 122.613 18.9362 121.565 20.0154C120.858 19.1098 119.923 18.3931 118.85 17.9328Z" stroke="#001749" stroke-width="0.763889" stroke-linecap="round" stroke-linejoin="round"/>
<path d="M115.788 22.3653C114.736 22.3551 113.697 22.144 112.731 21.7444C111.766 21.3447 110.893 20.7645 110.165 20.0379C111.19 18.7011 112.694 17.772 114.389 17.4278C114.015 17.2951 113.662 17.1156 113.338 16.8941L113.359 16.8883C113.336 16.8804 113.314 16.8704 113.291 16.8618C112.5 16.3058 111.921 15.5159 111.644 14.6139C111.368 13.712 111.41 12.7481 111.763 11.871C112.116 10.994 112.761 10.2523 113.598 9.76067C114.434 9.26892 115.417 9.05445 116.395 9.15023C117.372 9.246 118.288 9.64675 119.003 10.2907C119.72 10.9347 120.193 11.7859 120.353 12.7133C120.513 13.6407 120.349 14.5926 119.888 15.4221C119.425 16.2517 118.692 16.913 117.798 17.3038C117.696 17.3482 117.592 17.3898 117.485 17.4278C117.975 17.5299 118.452 17.6807 118.91 17.8777C119.996 18.3405 120.94 19.06 121.654 19.9683C120.905 20.736 119.996 21.3457 118.985 21.7584C117.975 22.1711 116.886 22.3778 115.788 22.3653Z" fill="#F78400" stroke="#001749" stroke-width="0.763889" stroke-linecap="round" stroke-linejoin="round"/>
<path d="M161.151 49.2842H146.617C142.98 49.2842 140.031 52.2326 140.031 55.8698V69.3871C140.031 73.0242 142.98 75.9726 146.617 75.9726H161.151C164.788 75.9726 167.736 73.0242 167.736 69.3871V55.8698C167.736 52.2326 164.788 49.2842 161.151 49.2842Z" fill="#001749" stroke="#001749" stroke-width="0.763889"/>
<path d="M160.142 49.2842H145.609C141.971 49.2842 139.023 52.2326 139.023 55.8698V69.3871C139.023 73.0242 141.971 75.9726 145.609 75.9726H160.142C163.779 75.9726 166.728 73.0242 166.728 69.3871V55.8698C166.728 52.2326 163.779 49.2842 160.142 49.2842Z" fill="#F78400" stroke="#001749" stroke-width="0.763889"/>
<path fill-rule="evenodd" clip-rule="evenodd" d="M155.816 55.3979H150.194V60.2313H145.177V65.6471H150.194V70.4806H155.816V65.6471H160.834V60.2313H155.816V55.3979Z" fill="white"/>
<path d="M150.194 55.3978V55.0159H149.812V55.3978H150.194ZM155.816 55.3978H156.198V55.0159H155.816V55.3978ZM150.194 60.2311V60.6131H150.576V60.2311H150.194ZM145.177 60.2311V59.8492H144.795V60.2311H145.177ZM145.177 65.647H144.795V66.0289H145.177V65.647ZM150.194 65.647H150.576V65.2651H150.194V65.647ZM150.194 70.4804H149.812V70.8624H150.194V70.4804ZM155.816 70.4804V70.8624H156.198V70.4804H155.816ZM155.816 65.647V65.2651H155.434V65.647H155.816ZM160.834 65.647V66.0289H161.216V65.647H160.834ZM160.834 60.2311H161.216V59.8492H160.834V60.2311ZM155.816 60.2311H155.434V60.6131H155.816V60.2311ZM150.194 55.7798H155.816V55.0159H150.194V55.7798ZM150.576 60.2311V55.3978H149.812V60.2311H150.576ZM145.177 60.6131H150.194V59.8492H145.177V60.6131ZM145.559 65.647V60.2311H144.795V65.647H145.559ZM150.194 65.2651H145.177V66.0289H150.194V65.2651ZM150.576 70.4804V65.647H149.812V70.4804H150.576ZM155.816 70.0985H150.194V70.8624H155.816V70.0985ZM155.434 65.647V70.4804H156.198V65.647H155.434ZM160.834 65.2651H155.816V66.0289H160.834V65.2651ZM160.452 60.2311V65.647H161.216V60.2311H160.452ZM155.816 60.6131H160.834V59.8492H155.816V60.6131ZM155.434 55.3978V60.2311H156.198V55.3978H155.434Z" fill="#001749"/>
<path d="M163.288 65.5786L175.707 49.4556L176.987 56.3991L185.977 51.9755L187.774 55.5663L178.78 60.0353L183.788 65.2851L163.288 65.5786Z" fill="#FBE62E" stroke="#001749" stroke-width="0.763889" stroke-linejoin="round"/>
<path d="M164.548 114.436C171.715 114.436 177.525 108.627 177.525 101.46C177.525 94.2932 171.715 88.4834 164.548 88.4834H131.343C124.176 88.4834 118.367 94.2932 118.367 101.46C118.367 108.627 124.176 114.436 131.343 114.436H164.548Z" fill="#001749" stroke="#001749" stroke-width="0.763889"/>
<path d="M163.786 113.702C170.952 113.702 176.762 107.892 176.762 100.725C176.762 93.5585 170.952 87.7488 163.786 87.7488H130.465C123.299 87.7488 117.489 93.5585 117.489 100.725C117.489 107.892 123.299 113.702 130.465 113.702H163.786Z" fill="#1C4396" stroke="#001749" stroke-width="0.763889"/>
<path d="M168.1 111.317C161.944 113.77 154.888 110.95 152.342 105.02C149.796 99.089 152.722 92.2929 158.878 89.84C165.035 87.3869 172.09 90.2061 174.636 96.1366C177.183 102.067 174.256 108.864 168.1 111.317Z" fill="#F78400" stroke="#001749" stroke-width="0.763889"/>
<path d="M163.489 108.404C167.975 108.404 171.612 104.9 171.612 100.579C171.612 96.2561 167.975 92.7527 163.489 92.7527C159.003 92.7527 155.365 96.2561 155.365 100.579C155.365 104.9 159.003 108.404 163.489 108.404Z" fill="white" stroke="#001749" stroke-width="0.763889" stroke-miterlimit="10"/>
<path d="M163.543 92.7527L163.462 108.404" stroke="#001749" stroke-width="0.763889" stroke-miterlimit="10" stroke-linejoin="round"/>
<path d="M163.544 92.7527C157.795 95.5273 157.753 105.551 163.459 108.404" stroke="#001749" stroke-width="0.763889" stroke-miterlimit="10" stroke-linejoin="round"/>
<path d="M163.427 92.7527C169.177 95.5273 169.219 105.551 163.512 108.404" stroke="#001749" stroke-width="0.763889" stroke-miterlimit="10" stroke-linejoin="round"/>
<path d="M171.612 100.631L155.365 100.526" stroke="#001749" stroke-width="0.763889" stroke-miterlimit="10" stroke-linejoin="round"/>
<path d="M155.88 103.353L171.204 103.431" stroke="#001749" stroke-width="0.763889" stroke-miterlimit="10" stroke-linejoin="round"/>
<path d="M157.782 106.153L169.166 106.231" stroke="#001749" stroke-width="0.763889" stroke-miterlimit="10" stroke-linejoin="round"/>
<path d="M155.908 97.7522L171.231 97.8305" stroke="#001749" stroke-width="0.763889" stroke-miterlimit="10" stroke-linejoin="round"/>
<path d="M157.864 94.9517L169.248 95.03" stroke="#001749" stroke-width="0.763889" stroke-miterlimit="10" stroke-linejoin="round"/>
</g>
</svg>
