<svg width="24" height="25" viewBox="0 0 24 25" fill="none" xmlns="http://www.w3.org/2000/svg">
<path fill-rule="evenodd" clip-rule="evenodd" d="M12 2.15625C6.48 2.15625 2 6.63625 2 12.1562C2 17.6763 6.48 22.1562 12 22.1562C17.52 22.1562 22 17.6763 22 12.1562C22 6.63625 17.52 2.15625 12 2.15625ZM12 20.1562C7.59 20.1562 4 16.5662 4 12.1562C4 7.74625 7.59 4.15625 12 4.15625C16.41 4.15625 20 7.74625 20 12.1562C20 16.5662 16.41 20.1562 12 20.1562ZM10 14.3263L15.88 8.44625C16.27 8.05625 16.91 8.05625 17.3 8.44625C17.69 8.83625 17.69 9.46625 17.3 9.85625L10.71 16.4463C10.32 16.8363 9.69 16.8363 9.3 16.4463L6.71 13.8562C6.32 13.4662 6.32 12.8363 6.71 12.4462C6.89683 12.259 7.15048 12.1538 7.415 12.1538C7.67952 12.1538 7.93317 12.259 8.12 12.4462L10 14.3263Z" fill="#313CBD"/>
</svg>
