<svg width="275" height="154" viewBox="0 0 275 154" fill="none" xmlns="http://www.w3.org/2000/svg">
<path d="M212.929 94.6233L81.3446 120.197L60.602 35.5305C60.3935 34.6901 60.395 33.9552 60.5016 33.1154C60.6084 32.2757 60.9249 31.5413 61.3466 30.8072C61.7682 30.073 62.3997 29.5492 63.031 29.0255C63.7672 28.607 64.5034 28.1884 65.3442 28.0851L184.843 4.79815C186.419 4.48623 187.994 4.80427 189.358 5.64688C190.723 6.48949 191.665 7.75125 191.978 9.32678L212.929 94.6233Z" fill="#519AF4" stroke="#06122C" stroke-width="0.763889" stroke-linecap="round" stroke-linejoin="round"/>
<path d="M261.118 111.726L131.002 138.352C128.901 138.768 126.694 138.554 124.805 137.605L81.0384 115.261L81.5529 120.827L125.425 143.066C127.314 144.015 129.414 144.334 131.412 143.917L261.632 117.292C262.683 116.979 263.42 116.14 263.318 114.67L262.804 109.524L261.118 111.726Z" fill="#00AC6B" stroke="#06122C" stroke-width="0.763889" stroke-linecap="round" stroke-linejoin="round"/>
<path d="M211.782 88.5317L81.1415 115.262L125.118 137.606C126.903 138.45 128.793 138.768 130.79 138.353L261.221 111.726C261.642 111.622 262.062 111.413 262.378 111.099C262.694 110.785 262.905 110.365 262.906 109.84C262.907 109.42 262.803 108.895 262.593 108.579C262.383 108.264 261.963 107.948 261.544 107.738L211.782 88.5317Z" fill="#519AF4" stroke="#06122C" stroke-width="0.763889" stroke-linecap="round" stroke-linejoin="round"/>
<path d="M206.273 115.294L204.696 115.607L202.069 116.126L200.492 116.438L190.612 118.414L189.036 118.726L186.514 119.246L184.938 119.558L175.058 121.639L173.481 121.951L171.063 122.471L169.487 122.782L159.607 124.864L158.03 125.175L155.614 125.696L154.037 126.008L144.052 128.089C143.632 128.193 143.631 128.403 143.946 128.613L146.885 129.984C147.411 130.195 147.935 130.301 148.461 130.197L158.446 128.116L160.022 127.804L162.439 127.284L164.016 126.972L174.001 124.892L175.577 124.58L177.995 124.059L179.571 123.748L189.555 121.667L191.132 121.355L193.654 120.835L195.231 120.523L205.216 118.443L206.792 118.13L209.42 117.611L210.997 117.299L220.981 115.218C221.402 115.114 221.402 114.904 220.983 114.693L217.517 113.322C216.993 113.111 216.468 113.11 215.942 113.214L206.273 115.294Z" fill="#00AC6B" stroke="#06122C" stroke-width="0.763889" stroke-miterlimit="10"/>
<path d="M206.273 115.294L204.696 115.607L202.069 116.126L200.492 116.438L190.612 118.414L189.036 118.726L186.514 119.246L184.938 119.558L175.058 121.639L173.481 121.951L171.063 122.471L169.487 122.782L159.607 124.864L158.03 125.175L155.614 125.696L154.037 126.008L144.052 128.089C143.632 128.193 143.631 128.403 143.946 128.613L146.885 129.984C147.411 130.195 147.935 130.301 148.461 130.197L158.446 128.116L160.022 127.804L162.439 127.284L164.016 126.972L174.001 124.892L175.577 124.58L177.995 124.059L179.571 123.748L189.555 121.667L191.132 121.355L193.654 120.835L195.231 120.523L205.216 118.443L206.792 118.13L209.42 117.611L210.997 117.299L220.981 115.218C221.402 115.114 221.402 114.904 220.983 114.693L217.517 113.322C216.993 113.111 216.468 113.11 215.942 113.214L206.273 115.294Z" fill="#00AC6B" stroke="#06122C" stroke-width="0.763889" stroke-miterlimit="10"/>
<path d="M197.559 111.603C197.138 111.707 197.138 111.917 197.557 112.128L200.811 113.499C201.336 113.71 201.861 113.711 202.388 113.607L212.162 111.631C212.582 111.527 212.583 111.317 212.163 111.106L208.698 109.734C208.173 109.523 207.648 109.522 207.123 109.626L197.559 111.603Z" fill="#00AC6B" stroke="#06122C" stroke-width="0.763889" stroke-miterlimit="10"/>
<path d="M197.559 111.603C197.138 111.707 197.138 111.917 197.557 112.128L200.811 113.499C201.336 113.71 201.861 113.711 202.388 113.607L212.162 111.631C212.582 111.527 212.583 111.317 212.163 111.106L208.698 109.734C208.173 109.523 207.648 109.522 207.123 109.626L197.559 111.603Z" fill="#00AC6B" stroke="#06122C" stroke-width="0.763889" stroke-miterlimit="10"/>
<path d="M151.206 121.068C150.786 121.172 150.785 121.382 151.1 121.592L154.144 122.963C154.669 123.174 155.195 123.175 155.72 123.176L165.6 121.2C166.02 121.096 166.02 120.886 165.706 120.675L162.557 119.2C162.031 118.989 161.506 118.988 160.981 118.986L151.206 121.068Z" fill="#00AC6B" stroke="#06122C" stroke-width="0.763889" stroke-miterlimit="10"/>
<path d="M151.206 121.068C150.786 121.172 150.785 121.382 151.1 121.592L154.144 122.963C154.669 123.174 155.195 123.175 155.72 123.176L165.6 121.2C166.02 121.096 166.02 120.886 165.706 120.675L162.557 119.2C162.031 118.989 161.506 118.988 160.981 118.986L151.206 121.068Z" fill="#00AC6B" stroke="#06122C" stroke-width="0.763889" stroke-miterlimit="10"/>
<path d="M133.671 116.729C134.092 116.625 134.092 116.415 133.777 116.204L130.733 114.833C130.209 114.622 129.684 114.621 129.157 114.619L119.699 116.596C119.278 116.701 119.172 116.91 119.593 117.121L122.532 118.596C123.056 118.807 123.581 118.913 124.107 118.81L133.671 116.729Z" fill="#00AC6B" stroke="#06122C" stroke-width="0.763889" stroke-miterlimit="10"/>
<path d="M133.671 116.729C134.092 116.625 134.092 116.415 133.777 116.204L130.733 114.833C130.209 114.622 129.684 114.621 129.157 114.619L119.699 116.596C119.278 116.701 119.172 116.91 119.593 117.121L122.532 118.596C123.056 118.807 123.581 118.913 124.107 118.81L133.671 116.729Z" fill="#00AC6B" stroke="#06122C" stroke-width="0.763889" stroke-miterlimit="10"/>
<path d="M166.554 117.947C166.132 118.051 166.132 118.261 166.448 118.472L169.597 119.843C170.121 120.054 170.646 120.055 171.172 120.056L180.946 118.08C181.366 117.976 181.367 117.766 181.052 117.556L177.798 116.184C177.273 115.973 176.748 115.972 176.222 115.971L166.554 117.947Z" fill="#00AC6B" stroke="#06122C" stroke-width="0.763889" stroke-miterlimit="10"/>
<path d="M166.554 117.947C166.132 118.051 166.132 118.261 166.448 118.472L169.597 119.843C170.121 120.054 170.646 120.055 171.172 120.056L180.946 118.08C181.366 117.976 181.367 117.766 181.052 117.556L177.798 116.184C177.273 115.973 176.748 115.972 176.222 115.971L166.554 117.947Z" fill="#00AC6B" stroke="#06122C" stroke-width="0.763889" stroke-miterlimit="10"/>
<path d="M182.001 114.723C181.581 114.827 181.581 115.037 181.895 115.247L185.149 116.618C185.675 116.829 186.2 116.83 186.725 116.831L196.5 114.855C196.92 114.751 196.921 114.541 196.501 114.33L193.142 112.959C192.616 112.748 192.091 112.747 191.566 112.851L182.001 114.723Z" fill="#00AC6B" stroke="#06122C" stroke-width="0.763889" stroke-miterlimit="10"/>
<path d="M182.001 114.723C181.581 114.827 181.581 115.037 181.895 115.247L185.149 116.618C185.675 116.829 186.2 116.83 186.725 116.831L196.5 114.855C196.92 114.751 196.921 114.541 196.501 114.33L193.142 112.959C192.616 112.748 192.091 112.747 191.566 112.851L182.001 114.723Z" fill="#00AC6B" stroke="#06122C" stroke-width="0.763889" stroke-miterlimit="10"/>
<path d="M221.928 112.07C221.508 112.174 221.507 112.384 221.927 112.595L225.391 113.966C225.916 114.177 226.442 114.178 226.967 114.074L236.847 112.099C237.267 111.995 237.268 111.784 236.848 111.679L233.278 110.307C232.753 110.096 232.228 110.095 231.702 110.199L221.928 112.07Z" fill="#00AC6B" stroke="#06122C" stroke-width="0.763889" stroke-miterlimit="10"/>
<path d="M221.928 112.07C221.508 112.174 221.507 112.384 221.927 112.595L225.391 113.966C225.916 114.177 226.442 114.178 226.967 114.074L236.847 112.099C237.267 111.995 237.268 111.784 236.848 111.679L233.278 110.307C232.753 110.096 232.228 110.095 231.702 110.199L221.928 112.07Z" fill="#00AC6B" stroke="#06122C" stroke-width="0.763889" stroke-miterlimit="10"/>
<path d="M158.154 114.151C157.734 114.255 157.734 114.465 158.048 114.676L161.197 116.047C161.722 116.258 162.247 116.259 162.772 116.26L172.442 114.283C172.862 114.179 172.863 113.969 172.548 113.759L169.294 112.387C168.769 112.176 168.244 112.175 167.718 112.174L158.154 114.151Z" fill="#00AC6B" stroke="#06122C" stroke-width="0.763889" stroke-miterlimit="10"/>
<path d="M158.154 114.151C157.734 114.255 157.734 114.465 158.048 114.676L161.197 116.047C161.722 116.258 162.247 116.259 162.772 116.26L172.442 114.283C172.862 114.179 172.863 113.969 172.548 113.759L169.294 112.387C168.769 112.176 168.244 112.175 167.718 112.174L158.154 114.151Z" fill="#00AC6B" stroke="#06122C" stroke-width="0.763889" stroke-miterlimit="10"/>
<path d="M142.914 117.271C142.494 117.375 142.493 117.585 142.808 117.796L145.852 119.167C146.377 119.377 146.903 119.379 147.428 119.38L157.097 117.404C157.518 117.3 157.518 117.09 157.204 116.879L154.054 115.508C153.529 115.297 153.004 115.296 152.479 115.295L142.914 117.271Z" fill="#00AC6B" stroke="#06122C" stroke-width="0.763889" stroke-miterlimit="10"/>
<path d="M142.914 117.271C142.494 117.375 142.493 117.585 142.808 117.796L145.852 119.167C146.377 119.377 146.903 119.379 147.428 119.38L157.097 117.404C157.518 117.3 157.518 117.09 157.204 116.879L154.054 115.508C153.529 115.297 153.004 115.296 152.479 115.295L142.914 117.271Z" fill="#00AC6B" stroke="#06122C" stroke-width="0.763889" stroke-miterlimit="10"/>
<path d="M213.007 108.379C212.586 108.483 212.585 108.693 213.006 108.903L216.47 110.275C216.995 110.486 217.52 110.487 218.045 110.383L227.82 108.407C228.24 108.303 228.241 108.093 227.821 107.987L224.252 106.615C223.727 106.404 223.202 106.403 222.676 106.507L213.007 108.379Z" fill="#00AC6B" stroke="#06122C" stroke-width="0.763889" stroke-miterlimit="10"/>
<path d="M213.007 108.379C212.586 108.483 212.585 108.693 213.006 108.903L216.47 110.275C216.995 110.486 217.52 110.487 218.045 110.383L227.82 108.407C228.24 108.303 228.241 108.093 227.821 107.987L224.252 106.615C223.727 106.404 223.202 106.403 222.676 106.507L213.007 108.379Z" fill="#00AC6B" stroke="#06122C" stroke-width="0.763889" stroke-miterlimit="10"/>
<path d="M188.738 107.912C188.318 108.016 188.317 108.226 188.737 108.436L192.096 109.808C192.621 110.019 193.146 110.02 193.672 109.916L203.235 107.939C203.657 107.835 203.657 107.625 203.237 107.414L199.772 106.043C199.248 105.832 198.723 105.831 198.197 105.935L188.738 107.912Z" fill="#00AC6B" stroke="#06122C" stroke-width="0.763889" stroke-miterlimit="10"/>
<path d="M188.738 107.912C188.318 108.016 188.317 108.226 188.737 108.436L192.096 109.808C192.621 110.019 193.146 110.02 193.672 109.916L203.235 107.939C203.657 107.835 203.657 107.625 203.237 107.414L199.772 106.043C199.248 105.832 198.723 105.831 198.197 105.935L188.738 107.912Z" fill="#00AC6B" stroke="#06122C" stroke-width="0.763889" stroke-miterlimit="10"/>
<path d="M173.498 111.031C173.077 111.135 173.077 111.345 173.497 111.556L176.751 112.927C177.276 113.139 177.802 113.139 178.327 113.14L187.891 111.164C188.311 111.06 188.312 110.85 187.892 110.639L184.533 109.268C184.007 109.056 183.482 109.056 182.957 109.16L173.498 111.031Z" fill="#00AC6B" stroke="#06122C" stroke-width="0.763889" stroke-miterlimit="10"/>
<path d="M173.498 111.031C173.077 111.135 173.077 111.345 173.497 111.556L176.751 112.927C177.276 113.139 177.802 113.139 178.327 113.14L187.891 111.164C188.311 111.06 188.312 110.85 187.892 110.639L184.533 109.268C184.007 109.056 183.482 109.056 182.957 109.16L173.498 111.031Z" fill="#00AC6B" stroke="#06122C" stroke-width="0.763889" stroke-miterlimit="10"/>
<path d="M194.209 104.247C194.63 104.143 194.63 103.933 194.21 103.722L190.746 102.35C190.222 102.139 189.696 102.138 189.17 102.242L179.922 104.114C179.501 104.218 179.501 104.428 179.921 104.639L183.28 106.01C183.805 106.221 184.33 106.222 184.855 106.118L194.209 104.247Z" fill="#00AC6B" stroke="#06122C" stroke-width="0.763889" stroke-miterlimit="10"/>
<path d="M194.209 104.247C194.63 104.143 194.63 103.933 194.21 103.722L190.746 102.35C190.222 102.139 189.696 102.138 189.17 102.242L179.922 104.114C179.501 104.218 179.501 104.428 179.921 104.639L183.28 106.01C183.805 106.221 184.33 106.222 184.855 106.118L194.209 104.247Z" fill="#00AC6B" stroke="#06122C" stroke-width="0.763889" stroke-miterlimit="10"/>
<path d="M209.45 101.231C209.871 101.127 209.871 100.917 209.451 100.811L205.881 99.4401C205.357 99.229 204.831 99.2281 204.306 99.3312L195.057 101.204C194.637 101.308 194.636 101.518 195.056 101.729L198.52 103.1C199.046 103.311 199.571 103.312 200.096 103.208L209.45 101.231Z" fill="#00AC6B" stroke="#06122C" stroke-width="0.763889" stroke-miterlimit="10"/>
<path d="M209.45 101.231C209.871 101.127 209.871 100.917 209.451 100.811L205.881 99.4401C205.357 99.229 204.831 99.2281 204.306 99.3312L195.057 101.204C194.637 101.308 194.636 101.518 195.056 101.729L198.52 103.1C199.046 103.311 199.571 103.312 200.096 103.208L209.45 101.231Z" fill="#00AC6B" stroke="#06122C" stroke-width="0.763889" stroke-miterlimit="10"/>
<path d="M179.076 107.366C179.496 107.262 179.496 107.052 179.077 106.842L175.717 105.47C175.192 105.259 174.667 105.258 174.142 105.362L164.787 107.234C164.367 107.338 164.367 107.548 164.786 107.759L168.04 109.13C168.565 109.341 169.091 109.342 169.616 109.343L179.076 107.366Z" fill="#00AC6B" stroke="#06122C" stroke-width="0.763889" stroke-miterlimit="10"/>
<path d="M179.076 107.366C179.496 107.262 179.496 107.052 179.077 106.842L175.717 105.47C175.192 105.259 174.667 105.258 174.142 105.362L164.787 107.234C164.367 107.338 164.367 107.548 164.786 107.759L168.04 109.13C168.565 109.341 169.091 109.342 169.616 109.343L179.076 107.366Z" fill="#00AC6B" stroke="#06122C" stroke-width="0.763889" stroke-miterlimit="10"/>
<path d="M148.701 113.607C149.122 113.503 149.122 113.293 148.807 113.083L145.658 111.712C145.133 111.501 144.608 111.5 144.083 111.499L134.623 113.476C134.203 113.58 134.202 113.79 134.517 114L137.561 115.371C138.086 115.582 138.611 115.583 139.137 115.584L148.701 113.607Z" fill="#00AC6B" stroke="#06122C" stroke-width="0.763889" stroke-miterlimit="10"/>
<path d="M148.701 113.607C149.122 113.503 149.122 113.293 148.807 113.083L145.658 111.712C145.133 111.501 144.608 111.5 144.083 111.499L134.623 113.476C134.203 113.58 134.202 113.79 134.517 114L137.561 115.371C138.086 115.582 138.611 115.583 139.137 115.584L148.701 113.607Z" fill="#00AC6B" stroke="#06122C" stroke-width="0.763889" stroke-miterlimit="10"/>
<path d="M163.937 110.488C164.357 110.384 164.358 110.174 163.938 109.963L160.684 108.591C160.159 108.38 159.634 108.379 159.108 108.378L149.755 110.25C149.335 110.354 149.334 110.564 149.649 110.775L152.798 112.146C153.323 112.357 153.848 112.358 154.373 112.359L163.937 110.488Z" fill="#00AC6B" stroke="#06122C" stroke-width="0.763889" stroke-miterlimit="10"/>
<path d="M163.937 110.488C164.357 110.384 164.358 110.174 163.938 109.963L160.684 108.591C160.159 108.38 159.634 108.379 159.108 108.378L149.755 110.25C149.335 110.354 149.334 110.564 149.649 110.775L152.798 112.146C153.323 112.357 153.848 112.358 154.373 112.359L163.937 110.488Z" fill="#00AC6B" stroke="#06122C" stroke-width="0.763889" stroke-miterlimit="10"/>
<path d="M123.786 121.644C123.261 121.433 122.736 121.327 122.211 121.431L112.542 123.407C112.121 123.512 112.016 123.721 112.435 123.932L115.374 125.302C115.899 125.513 116.424 125.619 116.949 125.516L126.724 123.54C127.145 123.436 127.145 123.225 126.83 123.015L123.786 121.644Z" fill="#00AC6B" stroke="#06122C" stroke-width="0.763889" stroke-miterlimit="10"/>
<path d="M123.786 121.644C123.261 121.433 122.736 121.327 122.211 121.431L112.542 123.407C112.121 123.512 112.016 123.721 112.435 123.932L115.374 125.302C115.899 125.513 116.424 125.619 116.949 125.516L126.724 123.54C127.145 123.436 127.145 123.225 126.83 123.015L123.786 121.644Z" fill="#00AC6B" stroke="#06122C" stroke-width="0.763889" stroke-miterlimit="10"/>
<path d="M135.756 124.187C135.335 124.291 135.23 124.501 135.65 124.712L138.589 126.188C139.114 126.399 139.639 126.505 140.164 126.401L150.044 124.425C150.464 124.321 150.464 124.111 150.15 123.901L147.106 122.53C146.581 122.319 146.056 122.318 145.53 122.317L135.756 124.187Z" fill="#00AC6B" stroke="#06122C" stroke-width="0.763889" stroke-miterlimit="10"/>
<path d="M135.756 124.187C135.335 124.291 135.23 124.501 135.65 124.712L138.589 126.188C139.114 126.399 139.639 126.505 140.164 126.401L150.044 124.425C150.464 124.321 150.464 124.111 150.15 123.901L147.106 122.53C146.581 122.319 146.056 122.318 145.53 122.317L135.756 124.187Z" fill="#00AC6B" stroke="#06122C" stroke-width="0.763889" stroke-miterlimit="10"/>
<path d="M120.409 127.413C119.989 127.517 119.883 127.726 120.303 127.937L123.242 129.413C123.766 129.624 124.291 129.73 124.818 129.626L134.697 127.65C135.118 127.546 135.118 127.336 134.803 127.125L131.864 125.65C131.339 125.439 130.814 125.333 130.289 125.437L120.409 127.413Z" fill="#00AC6B" stroke="#06122C" stroke-width="0.763889" stroke-miterlimit="10"/>
<path d="M120.409 127.413C119.989 127.517 119.883 127.726 120.303 127.937L123.242 129.413C123.766 129.624 124.291 129.73 124.818 129.626L134.697 127.65C135.118 127.546 135.118 127.336 134.803 127.125L131.864 125.65C131.339 125.439 130.814 125.333 130.289 125.437L120.409 127.413Z" fill="#00AC6B" stroke="#06122C" stroke-width="0.763889" stroke-miterlimit="10"/>
<path d="M118.638 119.744C119.058 119.64 119.059 119.43 118.744 119.22L115.805 117.849C115.279 117.638 114.755 117.532 114.229 117.636L104.77 119.612C104.35 119.717 104.349 119.927 104.664 120.138L107.602 121.613C108.128 121.824 108.653 121.93 109.178 121.826L118.638 119.744Z" fill="#00AC6B" stroke="#06122C" stroke-width="0.763889" stroke-miterlimit="10"/>
<path d="M118.638 119.744C119.058 119.64 119.059 119.43 118.744 119.22L115.805 117.849C115.279 117.638 114.755 117.532 114.229 117.636L104.77 119.612C104.35 119.717 104.349 119.927 104.664 120.138L107.602 121.613C108.128 121.824 108.653 121.93 109.178 121.826L118.638 119.744Z" fill="#00AC6B" stroke="#06122C" stroke-width="0.763889" stroke-miterlimit="10"/>
<path d="M207.445 106.582C207.97 106.793 208.495 106.794 209.02 106.69L218.585 104.714C219.005 104.61 219.006 104.4 218.586 104.294L215.017 102.922C214.491 102.711 213.966 102.711 213.44 102.814L203.981 104.79C203.561 104.895 203.56 105.104 203.98 105.315L207.445 106.582Z" fill="#00AC6B" stroke="#06122C" stroke-width="0.763889" stroke-miterlimit="10"/>
<path d="M207.445 106.582C207.97 106.793 208.495 106.794 209.02 106.69L218.585 104.714C219.005 104.61 219.006 104.4 218.586 104.294L215.017 102.922C214.491 102.711 213.966 102.711 213.44 102.814L203.981 104.79C203.561 104.895 203.56 105.104 203.98 105.315L207.445 106.582Z" fill="#00AC6B" stroke="#06122C" stroke-width="0.763889" stroke-miterlimit="10"/>
<path d="M170.256 103.675C170.677 103.571 170.677 103.361 170.257 103.15L166.897 101.778C166.373 101.567 165.848 101.567 165.322 101.671L156.178 103.543C155.758 103.647 155.757 103.857 156.072 104.067L159.536 105.439C160.061 105.65 160.587 105.651 161.112 105.652L170.256 103.675Z" fill="#00AC6B" stroke="#06122C" stroke-width="0.763889" stroke-miterlimit="10"/>
<path d="M170.256 103.675C170.677 103.571 170.677 103.361 170.257 103.15L166.897 101.778C166.373 101.567 165.848 101.567 165.322 101.671L156.178 103.543C155.758 103.647 155.757 103.857 156.072 104.067L159.536 105.439C160.061 105.65 160.587 105.651 161.112 105.652L170.256 103.675Z" fill="#00AC6B" stroke="#06122C" stroke-width="0.763889" stroke-miterlimit="10"/>
<path d="M200.317 97.5389C200.738 97.4348 200.739 97.2247 200.318 97.1187L196.749 95.7471C196.224 95.5361 195.699 95.535 195.174 95.639L186.135 97.5112C185.714 97.6153 185.714 97.8253 186.133 98.0364L189.598 99.4085C190.122 99.6186 190.648 99.6205 191.174 99.5164L200.317 97.5389Z" fill="#00AC6B" stroke="#06122C" stroke-width="0.763889" stroke-miterlimit="10"/>
<path d="M200.317 97.5389C200.738 97.4348 200.739 97.2247 200.318 97.1187L196.749 95.7471C196.224 95.5361 195.699 95.535 195.174 95.639L186.135 97.5112C185.714 97.6153 185.714 97.8253 186.133 98.0364L189.598 99.4085C190.122 99.6186 190.648 99.6205 191.174 99.5164L200.317 97.5389Z" fill="#00AC6B" stroke="#06122C" stroke-width="0.763889" stroke-miterlimit="10"/>
<path d="M185.286 100.554C185.706 100.45 185.706 100.24 185.287 100.029L181.823 98.6579C181.298 98.4469 180.772 98.4459 180.246 98.55L171.103 100.422C170.682 100.527 170.682 100.736 171.102 100.947L174.461 102.319C174.986 102.529 175.511 102.531 176.037 102.427L185.286 100.554Z" fill="#00AC6B" stroke="#06122C" stroke-width="0.763889" stroke-miterlimit="10"/>
<path d="M185.286 100.554C185.706 100.45 185.706 100.24 185.287 100.029L181.823 98.6579C181.298 98.4469 180.772 98.4459 180.246 98.55L171.103 100.422C170.682 100.527 170.682 100.736 171.102 100.947L174.461 102.319C174.986 102.529 175.511 102.531 176.037 102.427L185.286 100.554Z" fill="#00AC6B" stroke="#06122C" stroke-width="0.763889" stroke-miterlimit="10"/>
<path d="M140.404 109.812C140.824 109.708 140.825 109.498 140.51 109.287L137.361 107.916C136.835 107.705 136.31 107.704 135.785 107.702L126.536 109.575C126.116 109.679 126.115 109.889 126.43 110.099L129.474 111.47C130 111.681 130.525 111.682 131.05 111.683L140.404 109.812Z" fill="#00AC6B" stroke="#06122C" stroke-width="0.763889" stroke-miterlimit="10"/>
<path d="M140.404 109.812C140.824 109.708 140.825 109.498 140.51 109.287L137.361 107.916C136.835 107.705 136.31 107.704 135.785 107.702L126.536 109.575C126.116 109.679 126.115 109.889 126.43 110.099L129.474 111.47C130 111.681 130.525 111.682 131.05 111.683L140.404 109.812Z" fill="#00AC6B" stroke="#06122C" stroke-width="0.763889" stroke-miterlimit="10"/>
<path d="M155.329 106.796C155.749 106.692 155.749 106.482 155.33 106.271L152.076 104.9C151.551 104.689 151.026 104.688 150.5 104.687L141.356 106.559C140.936 106.664 140.936 106.873 141.25 107.084L144.399 108.455C144.924 108.666 145.449 108.667 145.974 108.668L155.329 106.796Z" fill="#00AC6B" stroke="#06122C" stroke-width="0.763889" stroke-miterlimit="10"/>
<path d="M155.329 106.796C155.749 106.692 155.749 106.482 155.33 106.271L152.076 104.9C151.551 104.689 151.026 104.688 150.5 104.687L141.356 106.559C140.936 106.664 140.936 106.873 141.25 107.084L144.399 108.455C144.924 108.666 145.449 108.667 145.974 108.668L155.329 106.796Z" fill="#00AC6B" stroke="#06122C" stroke-width="0.763889" stroke-miterlimit="10"/>
<path d="M232.026 107.155C232.551 107.366 233.077 107.367 233.602 107.263L243.271 105.287C243.692 105.183 243.692 104.973 243.272 104.867L239.598 103.495C239.072 103.284 238.547 103.282 238.022 103.387L228.458 105.363C228.037 105.467 228.037 105.677 228.457 105.783L232.026 107.155Z" fill="#00AC6B" stroke="#06122C" stroke-width="0.763889" stroke-miterlimit="10"/>
<path d="M232.026 107.155C232.551 107.366 233.077 107.367 233.602 107.263L243.271 105.287C243.692 105.183 243.692 104.973 243.272 104.867L239.598 103.495C239.072 103.284 238.547 103.282 238.022 103.387L228.458 105.363C228.037 105.467 228.037 105.677 228.457 105.783L232.026 107.155Z" fill="#00AC6B" stroke="#06122C" stroke-width="0.763889" stroke-miterlimit="10"/>
<path d="M125.484 112.827C125.904 112.723 125.905 112.513 125.59 112.303L122.546 110.827C122.021 110.616 121.496 110.615 120.97 110.614L111.722 112.486C111.301 112.59 111.301 112.8 111.616 113.01L114.555 114.487C115.079 114.698 115.604 114.804 116.13 114.7L125.484 112.827Z" fill="#00AC6B" stroke="#06122C" stroke-width="0.763889" stroke-miterlimit="10"/>
<path d="M125.484 112.827C125.904 112.723 125.905 112.513 125.59 112.303L122.546 110.827C122.021 110.616 121.496 110.615 120.97 110.614L111.722 112.486C111.301 112.59 111.301 112.8 111.616 113.01L114.555 114.487C115.079 114.698 115.604 114.804 116.13 114.7L125.484 112.827Z" fill="#00AC6B" stroke="#06122C" stroke-width="0.763889" stroke-miterlimit="10"/>
<path d="M141.858 120.524C142.279 120.42 142.279 120.21 141.964 120L138.921 118.629C138.396 118.418 137.87 118.312 137.345 118.416L127.78 120.392C127.36 120.497 127.359 120.707 127.674 120.917L130.614 122.393C131.138 122.604 131.663 122.71 132.189 122.606L141.858 120.524Z" fill="#00AC6B" stroke="#06122C" stroke-width="0.763889" stroke-miterlimit="10"/>
<path d="M141.858 120.524C142.279 120.42 142.279 120.21 141.964 120L138.921 118.629C138.396 118.418 137.87 118.312 137.345 118.416L127.78 120.392C127.36 120.497 127.359 120.707 127.674 120.917L130.614 122.393C131.138 122.604 131.663 122.71 132.189 122.606L141.858 120.524Z" fill="#00AC6B" stroke="#06122C" stroke-width="0.763889" stroke-miterlimit="10"/>
<path d="M215.347 94.4185C215.768 94.3143 215.768 94.1043 215.348 93.9984L211.674 92.6264C211.148 92.4154 210.623 92.4144 210.098 92.5184L201.059 94.3907C200.638 94.4949 200.638 94.705 201.058 94.8107L204.733 96.1831C205.258 96.3941 205.783 96.3951 206.308 96.291L215.347 94.4185Z" fill="#00AC6B" stroke="#06122C" stroke-width="0.763889" stroke-miterlimit="10"/>
<path d="M215.347 94.4185C215.768 94.3143 215.768 94.1043 215.348 93.9984L211.674 92.6264C211.148 92.4154 210.623 92.4144 210.098 92.5184L201.059 94.3907C200.638 94.4949 200.638 94.705 201.058 94.8107L204.733 96.1831C205.258 96.3941 205.783 96.3951 206.308 96.291L215.347 94.4185Z" fill="#00AC6B" stroke="#06122C" stroke-width="0.763889" stroke-miterlimit="10"/>
<path d="M222.891 103.462C223.416 103.673 223.942 103.674 224.467 103.571L233.926 101.594C234.347 101.49 234.347 101.28 233.927 101.174L230.252 99.8019C229.727 99.5909 229.202 99.59 228.677 99.694L219.323 101.566C218.902 101.67 218.902 101.88 219.322 101.986L222.891 103.462Z" fill="#00AC6B" stroke="#06122C" stroke-width="0.763889" stroke-miterlimit="10"/>
<path d="M222.891 103.462C223.416 103.673 223.942 103.674 224.467 103.571L233.926 101.594C234.347 101.49 234.347 101.28 233.927 101.174L230.252 99.8019C229.727 99.5909 229.202 99.59 228.677 99.694L219.323 101.566C218.902 101.67 218.902 101.88 219.322 101.986L222.891 103.462Z" fill="#00AC6B" stroke="#06122C" stroke-width="0.763889" stroke-miterlimit="10"/>
<path d="M213.761 99.8744C214.286 100.085 214.811 100.087 215.336 99.9833L224.69 98.1108C225.111 98.0067 225.111 97.7966 224.691 97.6916L221.017 96.3195C220.492 96.1084 219.967 96.1075 219.441 96.2106L210.298 98.0831C209.878 98.1872 209.877 98.3972 210.297 98.5032L213.761 99.8744Z" fill="#00AC6B" stroke="#06122C" stroke-width="0.763889" stroke-miterlimit="10"/>
<path d="M213.761 99.8744C214.286 100.085 214.811 100.087 215.336 99.9833L224.69 98.1108C225.111 98.0067 225.111 97.7966 224.691 97.6916L221.017 96.3195C220.492 96.1084 219.967 96.1075 219.441 96.2106L210.298 98.0831C209.878 98.1872 209.877 98.3972 210.297 98.5032L213.761 99.8744Z" fill="#00AC6B" stroke="#06122C" stroke-width="0.763889" stroke-miterlimit="10"/>
<path d="M128.39 131.312C127.97 131.416 127.864 131.626 128.284 131.837L131.223 133.313C131.747 133.524 132.272 133.63 132.798 133.526L142.887 131.446C143.308 131.341 143.308 131.132 142.993 130.921L140.055 129.446C139.53 129.234 139.005 129.128 138.48 129.233L128.39 131.312Z" fill="#00AC6B" stroke="#06122C" stroke-width="0.763889" stroke-miterlimit="10"/>
<path d="M128.39 131.312C127.97 131.416 127.864 131.626 128.284 131.837L131.223 133.313C131.747 133.524 132.272 133.63 132.798 133.526L142.887 131.446C143.308 131.341 143.308 131.132 142.993 130.921L140.055 129.446C139.53 129.234 139.005 129.128 138.48 129.233L128.39 131.312Z" fill="#00AC6B" stroke="#06122C" stroke-width="0.763889" stroke-miterlimit="10"/>
<path d="M110.559 115.949C110.979 115.845 110.98 115.634 110.665 115.423L107.726 113.948C107.201 113.737 106.676 113.631 106.15 113.735L96.7962 115.607C96.376 115.711 96.3751 115.921 96.6902 116.132L99.6292 117.607C100.153 117.818 100.679 117.924 101.205 117.82L110.559 115.949Z" fill="#00AC6B" stroke="#06122C" stroke-width="0.763889" stroke-miterlimit="10"/>
<path d="M110.559 115.949C110.979 115.845 110.98 115.634 110.665 115.423L107.726 113.948C107.201 113.737 106.676 113.631 106.15 113.735L96.7962 115.607C96.376 115.711 96.3751 115.921 96.6902 116.132L99.6292 117.607C100.153 117.818 100.679 117.924 101.205 117.82L110.559 115.949Z" fill="#00AC6B" stroke="#06122C" stroke-width="0.763889" stroke-miterlimit="10"/>
<path d="M206.164 114.769L204.588 115.082L201.961 115.601L200.384 115.913L190.504 117.889L188.928 118.201L186.405 118.721L184.829 119.033L174.95 121.008L173.373 121.321L170.955 121.841L169.379 122.152L159.5 124.129L157.924 124.44L155.506 124.961L153.929 125.273L143.944 127.353C143.524 127.457 143.523 127.668 143.838 127.878L146.777 129.354C147.303 129.565 147.827 129.671 148.353 129.567L158.337 127.486L159.914 127.174L162.331 126.653L163.908 126.342L173.893 124.262L175.469 123.949L177.887 123.429L179.463 123.118L189.447 121.037L191.024 120.725L193.547 120.204L195.123 119.893L205.108 117.812L206.684 117.5L209.312 116.981L210.889 116.669L220.873 114.588C221.294 114.484 221.294 114.274 220.874 114.168L217.409 112.797C216.884 112.586 216.359 112.585 215.834 112.689L206.164 114.769Z" fill="#00AC6B" stroke="#06122C" stroke-width="0.763889" stroke-miterlimit="10"/>
<path d="M206.164 114.769L204.588 115.082L201.961 115.601L200.384 115.913L190.504 117.889L188.928 118.201L186.405 118.721L184.829 119.033L174.95 121.008L173.373 121.321L170.955 121.841L169.379 122.152L159.5 124.129L157.924 124.44L155.506 124.961L153.929 125.273L143.944 127.353C143.524 127.457 143.523 127.668 143.838 127.878L146.777 129.354C147.303 129.565 147.827 129.671 148.353 129.567L158.337 127.486L159.914 127.174L162.331 126.653L163.908 126.342L173.893 124.262L175.469 123.949L177.887 123.429L179.463 123.118L189.447 121.037L191.024 120.725L193.547 120.204L195.123 119.893L205.108 117.812L206.684 117.5L209.312 116.981L210.889 116.669L220.873 114.588C221.294 114.484 221.294 114.274 220.874 114.168L217.409 112.797C216.884 112.586 216.359 112.585 215.834 112.689L206.164 114.769Z" fill="#00AC6B" stroke="#06122C" stroke-width="0.763889" stroke-miterlimit="10"/>
<path d="M197.452 111.078C197.032 111.182 197.032 111.392 197.451 111.603L200.705 112.974C201.23 113.185 201.755 113.186 202.282 113.082L212.056 111.106C212.476 111.001 212.477 110.792 212.057 110.686L208.592 109.314C208.067 109.103 207.542 109.102 207.017 109.206L197.452 111.078Z" fill="#00AC6B" stroke="#06122C" stroke-width="0.763889" stroke-miterlimit="10"/>
<path d="M197.452 111.078C197.032 111.182 197.032 111.392 197.451 111.603L200.705 112.974C201.23 113.185 201.755 113.186 202.282 113.082L212.056 111.106C212.476 111.001 212.477 110.792 212.057 110.686L208.592 109.314C208.067 109.103 207.542 109.102 207.017 109.206L197.452 111.078Z" fill="#00AC6B" stroke="#06122C" stroke-width="0.763889" stroke-miterlimit="10"/>
<path d="M151.102 120.542C150.682 120.647 150.681 120.857 150.996 121.067L154.04 122.438C154.565 122.649 155.09 122.65 155.616 122.651L165.495 120.675C165.916 120.571 165.916 120.361 165.601 120.15L162.451 118.78C161.927 118.569 161.402 118.567 160.877 118.566L151.102 120.542Z" fill="#00AC6B" stroke="#06122C" stroke-width="0.763889" stroke-miterlimit="10"/>
<path d="M151.102 120.542C150.682 120.647 150.681 120.857 150.996 121.067L154.04 122.438C154.565 122.649 155.09 122.65 155.616 122.651L165.495 120.675C165.916 120.571 165.916 120.361 165.601 120.15L162.451 118.78C161.927 118.569 161.402 118.567 160.877 118.566L151.102 120.542Z" fill="#00AC6B" stroke="#06122C" stroke-width="0.763889" stroke-miterlimit="10"/>
<path d="M133.565 116.099C133.985 115.994 133.986 115.784 133.671 115.573L130.627 114.203C130.102 113.992 129.577 113.99 129.051 113.989L119.593 115.966C119.171 116.07 119.066 116.28 119.487 116.491L122.425 117.966C122.95 118.177 123.475 118.283 124 118.179L133.565 116.099Z" fill="#00AC6B" stroke="#06122C" stroke-width="0.763889" stroke-miterlimit="10"/>
<path d="M133.565 116.099C133.985 115.994 133.986 115.784 133.671 115.573L130.627 114.203C130.102 113.992 129.577 113.99 129.051 113.989L119.593 115.966C119.171 116.07 119.066 116.28 119.487 116.491L122.425 117.966C122.95 118.177 123.475 118.283 124 118.179L133.565 116.099Z" fill="#00AC6B" stroke="#06122C" stroke-width="0.763889" stroke-miterlimit="10"/>
<path d="M166.554 117.317C166.132 117.421 166.132 117.631 166.448 117.842L169.597 119.213C170.121 119.424 170.646 119.425 171.172 119.426L180.946 117.45C181.366 117.346 181.367 117.135 181.052 116.925L177.798 115.554C177.273 115.343 176.748 115.342 176.222 115.341L166.554 117.317Z" fill="#00AC6B" stroke="#06122C" stroke-width="0.763889" stroke-miterlimit="10"/>
<path d="M166.554 117.317C166.132 117.421 166.132 117.631 166.448 117.842L169.597 119.213C170.121 119.424 170.646 119.425 171.172 119.426L180.946 117.45C181.366 117.346 181.367 117.135 181.052 116.925L177.798 115.554C177.273 115.343 176.748 115.342 176.222 115.341L166.554 117.317Z" fill="#00AC6B" stroke="#06122C" stroke-width="0.763889" stroke-miterlimit="10"/>
<path d="M182.003 114.197C181.583 114.301 181.583 114.512 181.897 114.723L185.151 116.094C185.677 116.305 186.202 116.306 186.727 116.307L196.502 114.33C196.922 114.226 196.922 114.016 196.503 113.806L193.144 112.434C192.618 112.223 192.093 112.222 191.568 112.326L182.003 114.197Z" fill="#00AC6B" stroke="#06122C" stroke-width="0.763889" stroke-miterlimit="10"/>
<path d="M182.003 114.197C181.583 114.301 181.583 114.512 181.897 114.723L185.151 116.094C185.677 116.305 186.202 116.306 186.727 116.307L196.502 114.33C196.922 114.226 196.922 114.016 196.503 113.806L193.144 112.434C192.618 112.223 192.093 112.222 191.568 112.326L182.003 114.197Z" fill="#00AC6B" stroke="#06122C" stroke-width="0.763889" stroke-miterlimit="10"/>
<path d="M221.93 111.545C221.51 111.649 221.509 111.859 221.929 112.07L225.393 113.442C225.918 113.653 226.443 113.654 226.969 113.55L236.849 111.469C237.269 111.365 237.27 111.155 236.849 111.049L233.28 109.677C232.755 109.466 232.23 109.465 231.704 109.569L221.93 111.545Z" fill="#00AC6B" stroke="#06122C" stroke-width="0.763889" stroke-miterlimit="10"/>
<path d="M221.93 111.545C221.51 111.649 221.509 111.859 221.929 112.07L225.393 113.442C225.918 113.653 226.443 113.654 226.969 113.55L236.849 111.469C237.269 111.365 237.27 111.155 236.849 111.049L233.28 109.677C232.755 109.466 232.23 109.465 231.704 109.569L221.93 111.545Z" fill="#00AC6B" stroke="#06122C" stroke-width="0.763889" stroke-miterlimit="10"/>
<path d="M158.155 113.521C157.734 113.626 157.734 113.836 158.049 114.047L161.197 115.522C161.722 115.733 162.247 115.734 162.772 115.735L172.442 113.759C172.862 113.655 172.863 113.445 172.548 113.234L169.294 111.863C168.769 111.652 168.244 111.651 167.718 111.65L158.155 113.521Z" fill="#00AC6B" stroke="#06122C" stroke-width="0.763889" stroke-miterlimit="10"/>
<path d="M158.155 113.521C157.734 113.626 157.734 113.836 158.049 114.047L161.197 115.522C161.722 115.733 162.247 115.734 162.772 115.735L172.442 113.759C172.862 113.655 172.863 113.445 172.548 113.234L169.294 111.863C168.769 111.652 168.244 111.651 167.718 111.65L158.155 113.521Z" fill="#00AC6B" stroke="#06122C" stroke-width="0.763889" stroke-miterlimit="10"/>
<path d="M142.914 116.746C142.494 116.851 142.493 117.06 142.808 117.271L145.852 118.642C146.377 118.853 146.903 118.854 147.428 118.855L157.097 116.879C157.518 116.775 157.518 116.564 157.204 116.354L154.054 114.983C153.529 114.772 153.004 114.771 152.479 114.77L142.914 116.746Z" fill="#00AC6B" stroke="#06122C" stroke-width="0.763889" stroke-miterlimit="10"/>
<path d="M142.914 116.746C142.494 116.851 142.493 117.06 142.808 117.271L145.852 118.642C146.377 118.853 146.903 118.854 147.428 118.855L157.097 116.879C157.518 116.775 157.518 116.564 157.204 116.354L154.054 114.983C153.529 114.772 153.004 114.771 152.479 114.77L142.914 116.746Z" fill="#00AC6B" stroke="#06122C" stroke-width="0.763889" stroke-miterlimit="10"/>
<path d="M213.007 107.853C212.586 107.957 212.585 108.168 213.006 108.378L216.47 109.75C216.995 109.961 217.52 109.962 218.045 109.858L227.82 107.882C228.24 107.778 228.241 107.568 227.821 107.462L224.252 106.09C223.727 105.879 223.202 105.878 222.676 105.982L213.007 107.853Z" fill="#00AC6B" stroke="#06122C" stroke-width="0.763889" stroke-miterlimit="10"/>
<path d="M213.007 107.853C212.586 107.957 212.585 108.168 213.006 108.378L216.47 109.75C216.995 109.961 217.52 109.962 218.045 109.858L227.82 107.882C228.24 107.778 228.241 107.568 227.821 107.462L224.252 106.09C223.727 105.879 223.202 105.878 222.676 105.982L213.007 107.853Z" fill="#00AC6B" stroke="#06122C" stroke-width="0.763889" stroke-miterlimit="10"/>
<path d="M188.74 107.28C188.32 107.384 188.319 107.594 188.739 107.806L192.098 109.177C192.623 109.388 193.148 109.389 193.674 109.286L203.237 107.309C203.659 107.205 203.659 106.995 203.238 106.784L199.774 105.413C199.25 105.202 198.725 105.2 198.199 105.304L188.74 107.28Z" fill="#00AC6B" stroke="#06122C" stroke-width="0.763889" stroke-miterlimit="10"/>
<path d="M188.74 107.28C188.32 107.384 188.319 107.594 188.739 107.806L192.098 109.177C192.623 109.388 193.148 109.389 193.674 109.286L203.237 107.309C203.659 107.205 203.659 106.995 203.238 106.784L199.774 105.413C199.25 105.202 198.725 105.2 198.199 105.304L188.74 107.28Z" fill="#00AC6B" stroke="#06122C" stroke-width="0.763889" stroke-miterlimit="10"/>
<path d="M173.395 110.401C172.975 110.505 172.975 110.715 173.394 110.926L176.648 112.297C177.173 112.508 177.699 112.509 178.224 112.51L187.789 110.533C188.209 110.429 188.209 110.219 187.79 110.008L184.43 108.637C183.905 108.426 183.38 108.425 182.855 108.529L173.395 110.401Z" fill="#00AC6B" stroke="#06122C" stroke-width="0.763889" stroke-miterlimit="10"/>
<path d="M173.395 110.401C172.975 110.505 172.975 110.715 173.394 110.926L176.648 112.297C177.173 112.508 177.699 112.509 178.224 112.51L187.789 110.533C188.209 110.429 188.209 110.219 187.79 110.008L184.43 108.637C183.905 108.426 183.38 108.425 182.855 108.529L173.395 110.401Z" fill="#00AC6B" stroke="#06122C" stroke-width="0.763889" stroke-miterlimit="10"/>
<path d="M194.209 103.722C194.63 103.617 194.63 103.407 194.21 103.197L190.746 101.824C190.222 101.613 189.696 101.612 189.17 101.716L179.922 103.589C179.501 103.693 179.501 103.903 179.921 104.113L183.28 105.485C183.805 105.696 184.33 105.697 184.855 105.593L194.209 103.722Z" fill="#00AC6B" stroke="#06122C" stroke-width="0.763889" stroke-miterlimit="10"/>
<path d="M194.209 103.722C194.63 103.617 194.63 103.407 194.21 103.197L190.746 101.824C190.222 101.613 189.696 101.612 189.17 101.716L179.922 103.589C179.501 103.693 179.501 103.903 179.921 104.113L183.28 105.485C183.805 105.696 184.33 105.697 184.855 105.593L194.209 103.722Z" fill="#00AC6B" stroke="#06122C" stroke-width="0.763889" stroke-miterlimit="10"/>
<path d="M209.344 100.601C209.764 100.497 209.765 100.287 209.345 100.181L205.775 98.8088C205.25 98.5977 204.725 98.5968 204.2 98.7009L194.951 100.573C194.53 100.677 194.53 100.888 194.95 101.098L198.414 102.365C198.94 102.576 199.465 102.577 199.99 102.473L209.344 100.601Z" fill="#00AC6B" stroke="#06122C" stroke-width="0.763889" stroke-miterlimit="10"/>
<path d="M209.344 100.601C209.764 100.497 209.765 100.287 209.345 100.181L205.775 98.8088C205.25 98.5977 204.725 98.5968 204.2 98.7009L194.951 100.573C194.53 100.677 194.53 100.888 194.95 101.098L198.414 102.365C198.94 102.576 199.465 102.577 199.99 102.473L209.344 100.601Z" fill="#00AC6B" stroke="#06122C" stroke-width="0.763889" stroke-miterlimit="10"/>
<path d="M178.971 106.842C179.392 106.737 179.392 106.528 178.972 106.317L175.612 104.945C175.088 104.735 174.563 104.733 174.037 104.837L164.683 106.709C164.263 106.813 164.262 107.023 164.682 107.234L167.936 108.605C168.461 108.816 168.987 108.817 169.512 108.819L178.971 106.842Z" fill="#00AC6B" stroke="#06122C" stroke-width="0.763889" stroke-miterlimit="10"/>
<path d="M178.971 106.842C179.392 106.737 179.392 106.528 178.972 106.317L175.612 104.945C175.088 104.735 174.563 104.733 174.037 104.837L164.683 106.709C164.263 106.813 164.262 107.023 164.682 107.234L167.936 108.605C168.461 108.816 168.987 108.817 169.512 108.819L178.971 106.842Z" fill="#00AC6B" stroke="#06122C" stroke-width="0.763889" stroke-miterlimit="10"/>
<path d="M148.701 112.977C149.122 112.873 149.122 112.663 148.807 112.453L145.658 111.082C145.133 110.871 144.608 110.87 144.083 110.869L134.623 112.74C134.203 112.844 134.203 113.054 134.517 113.264L137.561 114.636C138.086 114.847 138.611 114.848 139.137 114.849L148.701 112.977Z" fill="#00AC6B" stroke="#06122C" stroke-width="0.763889" stroke-miterlimit="10"/>
<path d="M148.701 112.977C149.122 112.873 149.122 112.663 148.807 112.453L145.658 111.082C145.133 110.871 144.608 110.87 144.083 110.869L134.623 112.74C134.203 112.844 134.203 113.054 134.517 113.264L137.561 114.636C138.086 114.847 138.611 114.848 139.137 114.849L148.701 112.977Z" fill="#00AC6B" stroke="#06122C" stroke-width="0.763889" stroke-miterlimit="10"/>
<path d="M163.835 109.963C164.255 109.858 164.255 109.648 163.836 109.437L160.582 108.066C160.057 107.855 159.532 107.854 159.006 107.853L149.653 109.725C149.231 109.829 149.231 110.039 149.547 110.25L152.695 111.725C153.22 111.936 153.745 111.937 154.27 111.939L163.835 109.963Z" fill="#00AC6B" stroke="#06122C" stroke-width="0.763889" stroke-miterlimit="10"/>
<path d="M163.835 109.963C164.255 109.858 164.255 109.648 163.836 109.437L160.582 108.066C160.057 107.855 159.532 107.854 159.006 107.853L149.653 109.725C149.231 109.829 149.231 110.039 149.547 110.25L152.695 111.725C153.22 111.936 153.745 111.937 154.27 111.939L163.835 109.963Z" fill="#00AC6B" stroke="#06122C" stroke-width="0.763889" stroke-miterlimit="10"/>
<path d="M123.683 121.118C123.159 120.907 122.634 120.801 122.109 120.905L112.439 122.882C112.019 122.986 111.913 123.196 112.333 123.406L115.272 124.882C115.796 125.093 116.321 125.199 116.847 125.095L126.621 123.12C127.041 123.015 127.042 122.805 126.727 122.594L123.683 121.118Z" fill="#00AC6B" stroke="#06122C" stroke-width="0.763889" stroke-miterlimit="10"/>
<path d="M123.683 121.118C123.159 120.907 122.634 120.801 122.109 120.905L112.439 122.882C112.019 122.986 111.913 123.196 112.333 123.406L115.272 124.882C115.796 125.093 116.321 125.199 116.847 125.095L126.621 123.12C127.041 123.015 127.042 122.805 126.727 122.594L123.683 121.118Z" fill="#00AC6B" stroke="#06122C" stroke-width="0.763889" stroke-miterlimit="10"/>
<path d="M135.758 123.662C135.337 123.767 135.232 123.976 135.652 124.187L138.59 125.663C139.116 125.874 139.641 125.98 140.166 125.876L150.046 123.9C150.466 123.796 150.466 123.586 150.152 123.376L147.108 122.004C146.583 121.793 146.057 121.792 145.532 121.792L135.758 123.662Z" fill="#00AC6B" stroke="#06122C" stroke-width="0.763889" stroke-miterlimit="10"/>
<path d="M135.758 123.662C135.337 123.767 135.232 123.976 135.652 124.187L138.59 125.663C139.116 125.874 139.641 125.98 140.166 125.876L150.046 123.9C150.466 123.796 150.466 123.586 150.152 123.376L147.108 122.004C146.583 121.793 146.057 121.792 145.532 121.792L135.758 123.662Z" fill="#00AC6B" stroke="#06122C" stroke-width="0.763889" stroke-miterlimit="10"/>
<path d="M120.411 126.782C119.991 126.886 119.885 127.096 120.305 127.307L123.244 128.783C123.768 128.994 124.293 129.1 124.819 128.996L134.698 127.02C135.119 126.916 135.12 126.706 134.804 126.495L131.865 125.02C131.341 124.809 130.816 124.703 130.291 124.807L120.411 126.782Z" fill="#00AC6B" stroke="#06122C" stroke-width="0.763889" stroke-miterlimit="10"/>
<path d="M120.411 126.782C119.991 126.886 119.885 127.096 120.305 127.307L123.244 128.783C123.768 128.994 124.293 129.1 124.819 128.996L134.698 127.02C135.119 126.916 135.12 126.706 134.804 126.495L131.865 125.02C131.341 124.809 130.816 124.703 130.291 124.807L120.411 126.782Z" fill="#00AC6B" stroke="#06122C" stroke-width="0.763889" stroke-miterlimit="10"/>
<path d="M118.536 119.219C118.958 119.115 118.958 118.905 118.642 118.695L115.704 117.218C115.179 117.007 114.654 116.901 114.129 117.006L104.669 118.982C104.249 119.086 104.249 119.296 104.563 119.507L107.502 120.877C108.027 121.089 108.552 121.195 109.078 121.09L118.536 119.219Z" fill="#00AC6B" stroke="#06122C" stroke-width="0.763889" stroke-miterlimit="10"/>
<path d="M118.536 119.219C118.958 119.115 118.958 118.905 118.642 118.695L115.704 117.218C115.179 117.007 114.654 116.901 114.129 117.006L104.669 118.982C104.249 119.086 104.249 119.296 104.563 119.507L107.502 120.877C108.027 121.089 108.552 121.195 109.078 121.09L118.536 119.219Z" fill="#00AC6B" stroke="#06122C" stroke-width="0.763889" stroke-miterlimit="10"/>
<path d="M207.445 106.057C207.97 106.268 208.495 106.269 209.02 106.165L218.585 104.189C219.005 104.084 219.006 103.875 218.586 103.769L215.017 102.397C214.491 102.186 213.966 102.185 213.44 102.289L203.981 104.266C203.561 104.37 203.56 104.58 203.98 104.791L207.445 106.057Z" fill="#00AC6B" stroke="#06122C" stroke-width="0.763889" stroke-miterlimit="10"/>
<path d="M207.445 106.057C207.97 106.268 208.495 106.269 209.02 106.165L218.585 104.189C219.005 104.084 219.006 103.875 218.586 103.769L215.017 102.397C214.491 102.186 213.966 102.185 213.44 102.289L203.981 104.266C203.561 104.37 203.56 104.58 203.98 104.791L207.445 106.057Z" fill="#00AC6B" stroke="#06122C" stroke-width="0.763889" stroke-miterlimit="10"/>
<path d="M170.257 103.15C170.679 103.046 170.679 102.836 170.258 102.625L166.899 101.253C166.375 101.042 165.85 101.041 165.324 101.145L156.18 103.018C155.76 103.122 155.759 103.332 156.074 103.542L159.328 104.913C159.853 105.124 160.378 105.125 160.904 105.127L170.257 103.15Z" fill="#00AC6B" stroke="#06122C" stroke-width="0.763889" stroke-miterlimit="10"/>
<path d="M170.257 103.15C170.679 103.046 170.679 102.836 170.258 102.625L166.899 101.253C166.375 101.042 165.85 101.041 165.324 101.145L156.18 103.018C155.76 103.122 155.759 103.332 156.074 103.542L159.328 104.913C159.853 105.124 160.378 105.125 160.904 105.127L170.257 103.15Z" fill="#00AC6B" stroke="#06122C" stroke-width="0.763889" stroke-miterlimit="10"/>
<path d="M200.215 97.0136C200.635 96.9095 200.635 96.6995 200.215 96.5935L196.646 95.2216C196.122 95.0106 195.597 95.0096 195.07 95.1136L186.032 96.9859C185.612 97.09 185.611 97.3001 186.031 97.5111L189.495 98.8823C190.02 99.0933 190.545 99.0943 191.071 98.9902L200.215 97.0136Z" fill="#00AC6B" stroke="#06122C" stroke-width="0.763889" stroke-miterlimit="10"/>
<path d="M200.215 97.0136C200.635 96.9095 200.635 96.6995 200.215 96.5935L196.646 95.2216C196.122 95.0106 195.597 95.0096 195.07 95.1136L186.032 96.9859C185.612 97.09 185.611 97.3001 186.031 97.5111L189.495 98.8823C190.02 99.0933 190.545 99.0943 191.071 98.9902L200.215 97.0136Z" fill="#00AC6B" stroke="#06122C" stroke-width="0.763889" stroke-miterlimit="10"/>
<path d="M185.179 100.029C185.6 99.925 185.6 99.7149 185.18 99.5039L181.716 98.1327C181.192 97.9217 180.665 97.9208 180.14 98.0248L170.997 99.8964C170.576 100 170.575 100.211 170.996 100.422L174.355 101.793C174.88 102.004 175.405 102.006 175.93 101.902L185.179 100.029Z" fill="#00AC6B" stroke="#06122C" stroke-width="0.763889" stroke-miterlimit="10"/>
<path d="M185.179 100.029C185.6 99.925 185.6 99.7149 185.18 99.5039L181.716 98.1327C181.192 97.9217 180.665 97.9208 180.14 98.0248L170.997 99.8964C170.576 100 170.575 100.211 170.996 100.422L174.355 101.793C174.88 102.004 175.405 102.006 175.93 101.902L185.179 100.029Z" fill="#00AC6B" stroke="#06122C" stroke-width="0.763889" stroke-miterlimit="10"/>
<path d="M140.305 109.287C140.726 109.182 140.726 108.972 140.411 108.762L137.262 107.391C136.737 107.18 136.212 107.179 135.687 107.178L126.438 109.05C126.017 109.154 126.017 109.364 126.331 109.575L129.375 110.945C129.9 111.156 130.425 111.158 130.951 111.159L140.305 109.287Z" fill="#00AC6B" stroke="#06122C" stroke-width="0.763889" stroke-miterlimit="10"/>
<path d="M140.305 109.287C140.726 109.182 140.726 108.972 140.411 108.762L137.262 107.391C136.737 107.18 136.212 107.179 135.687 107.178L126.438 109.05C126.017 109.154 126.017 109.364 126.331 109.575L129.375 110.945C129.9 111.156 130.425 111.158 130.951 111.159L140.305 109.287Z" fill="#00AC6B" stroke="#06122C" stroke-width="0.763889" stroke-miterlimit="10"/>
<path d="M155.23 106.166C155.65 106.062 155.651 105.852 155.231 105.641L151.977 104.27C151.451 104.059 150.926 104.058 150.401 104.057L141.257 105.928C140.837 106.032 140.836 106.242 141.151 106.453L144.3 107.93C144.825 108.141 145.351 108.142 145.876 108.142L155.23 106.166Z" fill="#00AC6B" stroke="#06122C" stroke-width="0.763889" stroke-miterlimit="10"/>
<path d="M155.23 106.166C155.65 106.062 155.651 105.852 155.231 105.641L151.977 104.27C151.451 104.059 150.926 104.058 150.401 104.057L141.257 105.928C140.837 106.032 140.836 106.242 141.151 106.453L144.3 107.93C144.825 108.141 145.351 108.142 145.876 108.142L155.23 106.166Z" fill="#00AC6B" stroke="#06122C" stroke-width="0.763889" stroke-miterlimit="10"/>
<path d="M232.026 106.525C232.551 106.736 233.077 106.737 233.602 106.633L243.271 104.657C243.692 104.553 243.692 104.343 243.272 104.237L239.598 102.865C239.072 102.654 238.547 102.653 238.022 102.757L228.458 104.734C228.037 104.838 228.037 105.048 228.457 105.153L232.026 106.525Z" fill="#00AC6B" stroke="#06122C" stroke-width="0.763889" stroke-miterlimit="10"/>
<path d="M232.026 106.525C232.551 106.736 233.077 106.737 233.602 106.633L243.271 104.657C243.692 104.553 243.692 104.343 243.272 104.237L239.598 102.865C239.072 102.654 238.547 102.653 238.022 102.757L228.458 104.734C228.037 104.838 228.037 105.048 228.457 105.153L232.026 106.525Z" fill="#00AC6B" stroke="#06122C" stroke-width="0.763889" stroke-miterlimit="10"/>
<path d="M125.38 112.303C125.8 112.199 125.8 111.989 125.486 111.778L122.442 110.407C121.917 110.196 121.391 110.196 120.866 110.194L111.618 112.066C111.196 112.17 111.196 112.38 111.512 112.59L114.45 114.067C114.975 114.278 115.5 114.384 116.025 114.279L125.38 112.303Z" fill="#00AC6B" stroke="#06122C" stroke-width="0.763889" stroke-miterlimit="10"/>
<path d="M125.38 112.303C125.8 112.199 125.8 111.989 125.486 111.778L122.442 110.407C121.917 110.196 121.391 110.196 120.866 110.194L111.618 112.066C111.196 112.17 111.196 112.38 111.512 112.59L114.45 114.067C114.975 114.278 115.5 114.384 116.025 114.279L125.38 112.303Z" fill="#00AC6B" stroke="#06122C" stroke-width="0.763889" stroke-miterlimit="10"/>
<path d="M141.858 119.894C142.279 119.79 142.279 119.58 141.965 119.369L138.921 117.999C138.396 117.788 137.87 117.787 137.45 117.786L127.886 119.762C127.465 119.866 127.465 120.076 127.78 120.286L130.719 121.762C131.244 121.973 131.769 122.079 132.294 121.976L141.858 119.894Z" fill="#00AC6B" stroke="#06122C" stroke-width="0.763889" stroke-miterlimit="10"/>
<path d="M141.858 119.894C142.279 119.79 142.279 119.58 141.965 119.369L138.921 117.999C138.396 117.788 137.87 117.787 137.45 117.786L127.886 119.762C127.465 119.866 127.465 120.076 127.78 120.286L130.719 121.762C131.244 121.973 131.769 122.079 132.294 121.976L141.858 119.894Z" fill="#00AC6B" stroke="#06122C" stroke-width="0.763889" stroke-miterlimit="10"/>
<path d="M215.243 93.8931C215.663 93.7889 215.664 93.5789 215.244 93.4731L211.57 92.1011C211.044 91.8901 210.519 91.889 209.993 91.993L200.954 93.8654C200.534 93.9696 200.534 94.1795 200.954 94.2853L204.524 95.6572C205.048 95.8682 205.573 95.8693 206.099 95.7653L215.243 93.8931Z" fill="#00AC6B" stroke="#06122C" stroke-width="0.763889" stroke-miterlimit="10"/>
<path d="M215.243 93.8931C215.663 93.7889 215.664 93.5789 215.244 93.4731L211.57 92.1011C211.044 91.8901 210.519 91.889 209.993 91.993L200.954 93.8654C200.534 93.9696 200.534 94.1795 200.954 94.2853L204.524 95.6572C205.048 95.8682 205.573 95.8693 206.099 95.7653L215.243 93.8931Z" fill="#00AC6B" stroke="#06122C" stroke-width="0.763889" stroke-miterlimit="10"/>
<path d="M222.891 102.938C223.416 103.149 223.942 103.15 224.467 103.046L233.926 101.069C234.347 100.965 234.347 100.755 233.927 100.649L230.252 99.2768C229.727 99.0658 229.202 99.0648 228.677 99.1689L219.323 101.04C218.902 101.144 218.902 101.355 219.322 101.461L222.891 102.938Z" fill="#00AC6B" stroke="#06122C" stroke-width="0.763889" stroke-miterlimit="10"/>
<path d="M222.891 102.938C223.416 103.149 223.942 103.15 224.467 103.046L233.926 101.069C234.347 100.965 234.347 100.755 233.927 100.649L230.252 99.2768C229.727 99.0658 229.202 99.0648 228.677 99.1689L219.323 101.04C218.902 101.144 218.902 101.355 219.322 101.461L222.891 102.938Z" fill="#00AC6B" stroke="#06122C" stroke-width="0.763889" stroke-miterlimit="10"/>
<path d="M213.76 99.2452C214.284 99.4562 214.81 99.4572 215.336 99.3531L224.584 97.4806C225.004 97.3765 225.005 97.1665 224.585 97.0614L220.911 95.6889C220.386 95.4779 219.861 95.4769 219.335 95.5809L210.192 97.4529C209.771 97.557 209.771 97.7671 210.191 97.8731L213.76 99.2452Z" fill="#00AC6B" stroke="#06122C" stroke-width="0.763889" stroke-miterlimit="10"/>
<path d="M213.76 99.2452C214.284 99.4562 214.81 99.4572 215.336 99.3531L224.584 97.4806C225.004 97.3765 225.005 97.1665 224.585 97.0614L220.911 95.6889C220.386 95.4779 219.861 95.4769 219.335 95.5809L210.192 97.4529C209.771 97.557 209.771 97.7671 210.191 97.8731L213.76 99.2452Z" fill="#00AC6B" stroke="#06122C" stroke-width="0.763889" stroke-miterlimit="10"/>
<path d="M128.284 130.682C127.864 130.787 127.758 130.996 128.178 131.207L131.116 132.683C131.641 132.894 132.166 133 132.691 132.896L142.781 130.816C143.202 130.712 143.202 130.502 142.887 130.291L139.948 128.92C139.424 128.709 138.899 128.603 138.373 128.707L128.284 130.682Z" fill="#00AC6B" stroke="#06122C" stroke-width="0.763889" stroke-miterlimit="10"/>
<path d="M128.284 130.682C127.864 130.787 127.758 130.996 128.178 131.207L131.116 132.683C131.641 132.894 132.166 133 132.691 132.896L142.781 130.816C143.202 130.712 143.202 130.502 142.887 130.291L139.948 128.92C139.424 128.709 138.899 128.603 138.373 128.707L128.284 130.682Z" fill="#00AC6B" stroke="#06122C" stroke-width="0.763889" stroke-miterlimit="10"/>
<path d="M110.455 115.318C110.877 115.214 110.877 115.004 110.562 114.794L107.623 113.318C107.098 113.107 106.573 113.001 106.048 113.105L96.694 114.976C96.2729 115.081 96.2729 115.291 96.588 115.502L99.5271 116.872C100.051 117.083 100.576 117.189 101.103 117.085L110.455 115.318Z" fill="#00AC6B" stroke="#06122C" stroke-width="0.763889" stroke-miterlimit="10"/>
<path d="M110.455 115.318C110.877 115.214 110.877 115.004 110.562 114.794L107.623 113.318C107.098 113.107 106.573 113.001 106.048 113.105L96.694 114.976C96.2729 115.081 96.2729 115.291 96.588 115.502L99.5271 116.872C100.051 117.083 100.576 117.189 101.103 117.085L110.455 115.318Z" fill="#00AC6B" stroke="#06122C" stroke-width="0.763889" stroke-miterlimit="10"/>
<path d="M202.551 81.2688L201.508 76.962L195.254 51.646L193.065 42.5072L186.395 15.1956C186.291 14.5654 185.977 13.9348 185.452 13.5138C185.033 12.9881 184.509 12.6721 183.879 12.4609C183.143 12.2494 182.408 12.143 181.673 12.2466L160.969 16.3012L152.665 17.965L137.741 20.8759L104.53 27.3211L91.0769 29.9199L71.5284 33.7667C71.0028 33.8707 70.477 34.0796 70.0562 34.3938C69.6354 34.708 69.2143 35.1271 68.8984 35.5465C68.5824 35.9659 68.3712 36.4905 68.2651 37.0152C68.159 37.5399 68.1581 38.0649 68.3672 38.5903L74.7261 64.2214L78.8956 81.1336L84.6284 104.559C84.9414 105.714 85.5699 106.661 86.6193 107.293C87.5636 107.924 88.8238 108.137 89.8749 107.929L96.9165 106.578L111.841 103.666L120.143 102.003L143.37 97.4282L169.33 92.3337L176.582 90.8778L196.656 86.9271L199.073 86.5117C199.704 86.408 200.23 86.199 200.756 85.78C201.282 85.466 201.703 85.047 202.019 84.5225C202.335 83.9982 202.546 83.4736 202.653 82.8439C202.759 82.424 202.655 81.7939 202.551 81.2688Z" fill="#FBE62E" stroke="#06122C" stroke-width="0.763889" stroke-miterlimit="10"/>
<path d="M202.551 81.2688L201.508 76.962L195.254 51.646L193.065 42.5072L186.395 15.1956C186.291 14.5654 185.977 13.9348 185.452 13.5138C185.033 12.9881 184.509 12.6721 183.879 12.4609C183.143 12.2494 182.408 12.143 181.673 12.2466L160.969 16.3012L152.665 17.965L137.741 20.8759L104.53 27.3211L91.0769 29.9199L71.5284 33.7667C71.0028 33.8707 70.4771 34.0796 70.0562 34.3938C69.6354 34.708 69.2143 35.1271 68.8984 35.5465C68.5824 35.9659 68.3712 36.4905 68.2651 37.0152C68.159 37.5399 68.1581 38.0649 68.3672 38.5903L74.7261 64.2214L78.8956 81.1336L84.6284 104.559C84.9414 105.714 85.5699 106.661 86.6193 107.293C87.5636 107.924 88.8238 108.137 89.8749 107.929L96.9165 106.578L111.841 103.666L120.143 102.003L143.37 97.4282L169.33 92.3337L176.582 90.8778L196.656 86.9271L199.073 86.5117C199.704 86.408 200.23 86.199 200.756 85.78C201.282 85.466 201.703 85.047 202.019 84.5225C202.335 83.9982 202.546 83.4736 202.653 82.8439C202.759 82.424 202.655 81.7939 202.551 81.2688Z" stroke="#06122C" stroke-width="0.763889" stroke-miterlimit="10"/>
<path d="M238.219 108.112C237.799 108.216 237.798 108.426 238.218 108.532L241.577 109.903C242.102 110.114 242.522 110.115 243.048 110.011L252.402 108.035C252.822 107.931 252.823 107.721 252.403 107.615L248.939 106.243C248.414 106.137 247.994 106.031 247.468 106.135L238.219 108.112Z" fill="#00AC6B" stroke="#06122C" stroke-width="0.763889" stroke-miterlimit="10"/>
<path d="M238.219 108.112C237.799 108.216 237.798 108.426 238.218 108.532L241.577 109.903C242.102 110.114 242.522 110.115 243.048 110.011L252.402 108.035C252.822 107.931 252.823 107.721 252.403 107.615L248.939 106.243C248.414 106.137 247.994 106.031 247.468 106.135L238.219 108.112Z" fill="#00AC6B" stroke="#06122C" stroke-width="0.763889" stroke-miterlimit="10"/>
<path d="M238.219 107.902C237.799 108.006 237.798 108.216 238.218 108.322L241.577 109.693C242.102 109.904 242.522 109.905 243.048 109.801L252.402 107.825C252.822 107.72 252.823 107.51 252.403 107.404L248.939 106.032C248.414 105.821 247.994 105.821 247.468 105.924L238.219 107.902Z" fill="#00AC6B" stroke="#06122C" stroke-width="0.763889" stroke-miterlimit="10"/>
<path d="M20.5383 72.9746L127.992 53.1843" stroke="#06122C" stroke-width="0.763889" stroke-linecap="round"/>
<path d="M93.6138 72.846L152.368 61.3984" stroke="#06122C" stroke-width="0.763889" stroke-linecap="round"/>
<path d="M18.9001 52.2294L22.0584 48.3964C24.6979 45.0368 29.2312 43.7525 33.2405 45.2286L37.94 46.8354L34.107 43.6772C30.7474 41.0377 29.4631 36.5045 30.939 32.4951L32.546 27.7957L29.3877 31.6287C26.7482 34.9882 22.2149 36.2725 18.2056 34.7966L13.5062 33.1897L17.3392 36.348C20.6987 38.9874 21.983 43.5207 20.5071 47.5301L18.9001 52.2294Z" fill="#F78400" stroke="#06122C" stroke-width="0.763889" stroke-miterlimit="10" stroke-linejoin="round"/>
</svg>
