<svg width="39" height="31" viewBox="0 0 39 31" fill="none" xmlns="http://www.w3.org/2000/svg">
<g clip-path="url(#clip0_16_182)">
<g clip-path="url(#clip1_16_182)">
<path fill-rule="evenodd" clip-rule="evenodd" d="M7.48096 5.31563L19.2184 0.914062L30.956 5.31563V14.2508C30.956 21.6601 25.9529 28.5705 19.2184 30.2578C12.4841 28.5705 7.48096 21.6601 7.48096 14.2508V5.31563ZM23.5744 20.5689C23.0613 19.689 22.5479 18.8082 22.0286 17.9171C22.0138 17.9285 22.0003 17.9394 21.9875 17.9497C21.9647 17.9682 21.9438 17.985 21.9218 17.9992C21.6506 18.2042 21.4185 18.3537 21.1458 18.489C20.4187 18.8503 19.6427 18.9637 18.8359 18.8492C17.984 18.7284 17.2489 18.3634 16.6313 17.774C16.2286 17.3901 15.9283 16.9354 15.716 16.4235C15.4648 15.818 15.374 15.1591 15.4519 14.5092C15.5266 13.8683 15.7589 13.2553 16.1284 12.7237C16.498 12.1921 16.9936 11.7582 17.5721 11.4597C18.0991 11.1902 18.591 11.0382 19.2513 11.0106C19.3112 11.0094 19.4169 11.0026 19.4169 11.0026C19.4169 11.0026 20.7549 8.25754 20.8154 8.12779C18.5813 7.60515 15.1116 8.31791 13.2575 11.5407C11.6454 14.3425 12.1403 18.2349 15.1514 20.5161C17.768 22.4968 21.3025 22.289 23.5744 20.5689ZM22.0337 10.1028L21.9203 9.99244C21.8305 9.90514 21.7442 9.82129 21.6581 9.73706C21.6305 9.70999 21.6032 9.68246 21.5759 9.65494C21.5316 9.61039 21.4873 9.56569 21.4414 9.52286C21.4148 9.49789 21.3835 9.46369 21.3835 9.46369C21.3835 9.46369 21.4088 9.41066 21.4196 9.38891C21.5618 9.10661 21.7847 8.90021 22.0492 8.73611C22.3416 8.55319 22.6823 8.46011 23.0282 8.46866C23.4708 8.47729 23.8823 8.58626 24.2295 8.87981C24.4859 9.09649 24.6173 9.37136 24.6405 9.69941C24.6791 10.253 24.4475 10.677 23.9875 10.9728C23.8053 11.0901 23.6135 11.1896 23.4183 11.2907C23.324 11.3396 23.2288 11.3889 23.1336 11.4408C22.9724 11.5288 22.8346 11.6061 22.6771 11.7653C22.5385 11.9251 22.5317 12.0757 22.5317 12.0757L24.6254 12.073V12.9951H21.3937V12.906C21.3813 12.4529 21.4348 12.0264 21.6446 11.6149C21.8376 11.2374 22.1376 10.961 22.498 10.7481C22.6391 10.6647 22.784 10.5877 22.9289 10.5107C23.069 10.4361 23.2092 10.3617 23.3459 10.2814C23.5175 10.1808 23.6387 10.0333 23.6378 9.81934C23.6378 9.63566 23.5026 9.47246 23.3096 9.42154C22.8545 9.30011 22.3912 9.49384 22.1504 9.90581C22.1293 9.94181 22.108 9.97766 22.0845 10.0172L22.0337 10.1028ZM24.3191 13.9238L26.0835 16.9369L24.3047 19.9669L22.569 16.968H19.0518L20.8276 13.9238H24.3191Z" fill="#15357A"/>
</g>
</g>
<defs>
<clipPath id="clip0_16_182">
<rect width="38" height="30" fill="white" transform="translate(0.59375 0.257812)"/>
</clipPath>
<clipPath id="clip1_16_182">
<rect width="28.5" height="30" fill="white" transform="translate(5.34375 0.257812)"/>
</clipPath>
</defs>
</svg>
