<svg width="275" height="154" viewBox="0 0 275 154" fill="none" xmlns="http://www.w3.org/2000/svg">
<g clip-path="url(#clip0_16_311)">
<mask id="mask0_16_311" style="mask-type:luminance" maskUnits="userSpaceOnUse" x="0" y="0" width="275" height="154">
<path d="M275 0.431396H0V153.209H275V0.431396Z" fill="white"/>
</mask>
<g mask="url(#mask0_16_311)">
<path fill-rule="evenodd" clip-rule="evenodd" d="M117.341 8.74536L92.6038 8.91806L93.0149 45.0851L117.753 44.9123L117.341 8.74536ZM115.624 10.4872L116.011 43.1946L94.7327 43.3431L94.3456 10.6358L115.624 10.4872Z" fill="#FBE62E" stroke="#06122C" stroke-width="0.763889" stroke-miterlimit="10"/>
<path d="M92.5749 140.101L80.318 140.187L80.3286 141.706C80.3447 144.008 82.2265 145.863 84.5288 145.847L88.4435 145.82C90.7458 145.804 92.6016 143.922 92.5855 141.62L92.5749 140.101Z" fill="#FBE62E" stroke="#06122C" stroke-width="0.763889" stroke-miterlimit="10"/>
<path d="M76.6779 140.211L64.421 140.297L64.4316 141.817C64.4478 144.119 66.3296 145.975 68.6319 145.959L72.5466 145.931C74.8489 145.915 76.7047 144.033 76.6885 141.731L76.6779 140.211Z" fill="#FBE62E" stroke="#06122C" stroke-width="0.763889" stroke-miterlimit="10"/>
<path d="M141.398 139.76L129.141 139.845L129.152 141.365C129.168 143.667 131.049 145.522 133.352 145.506L137.266 145.479C139.568 145.463 141.424 143.581 141.408 141.279L141.398 139.76Z" fill="#FBE62E" stroke="#06122C" stroke-width="0.763889" stroke-miterlimit="10"/>
<path d="M92.9796 36.8977L66.8579 37.0801C62.4865 37.1106 58.96 40.6867 58.9906 45.0581L59.6143 134.403C59.6448 138.774 63.2209 142.301 67.5923 142.27L93.714 142.088L92.9796 36.8977Z" fill="#FBE62E" stroke="#06122C" stroke-width="0.763889" stroke-miterlimit="10"/>
<path d="M125.085 139.875L112.828 139.96L112.839 141.48C112.855 143.782 114.737 145.638 117.039 145.622L120.953 145.594C123.255 145.579 125.112 143.697 125.095 141.395L125.085 139.875Z" fill="#FBE62E" stroke="#06122C" stroke-width="0.763889" stroke-miterlimit="10"/>
<path d="M84.7348 36.9557L136.135 36.5969C140.51 36.5663 144.082 40.0887 144.112 44.4643L144.736 133.809C144.766 138.184 141.244 141.756 136.869 141.787L85.4691 142.146C81.0936 142.177 77.5216 138.654 77.4911 134.279L76.8674 44.9338C76.8368 40.5581 80.3592 36.9863 84.7348 36.9557Z" fill="#9BCDFB" stroke="#06122C" stroke-width="0.763889" stroke-miterlimit="10"/>
<path d="M135.339 150.002C133.094 150.017 131.262 148.21 131.247 145.965C131.23 143.722 133.037 141.889 135.282 141.873C137.527 141.858 139.359 143.664 139.374 145.909C139.391 148.154 137.583 149.986 135.339 150.002Z" fill="#06122C" stroke="#06122C" stroke-width="0.763889" stroke-miterlimit="10"/>
<path d="M119.032 150.116C116.787 150.131 114.955 148.325 114.939 146.08C114.923 143.835 116.73 142.003 118.975 141.987C121.22 141.971 123.052 143.779 123.067 146.023C123.084 148.268 121.276 150.1 119.032 150.116Z" fill="#06122C" stroke="#06122C" stroke-width="0.763889" stroke-miterlimit="10"/>
<path d="M86.514 150.342C84.2694 150.358 82.4371 148.551 82.4214 146.306C82.4058 144.061 84.2127 142.229 86.4573 142.214C88.7019 142.197 90.5343 144.005 90.5499 146.249C90.5656 148.494 88.7587 150.326 86.514 150.342Z" fill="#06122C" stroke="#06122C" stroke-width="0.763889" stroke-miterlimit="10"/>
<path d="M70.2068 150.456C67.9622 150.472 66.1299 148.665 66.1142 146.421C66.0985 144.176 67.9054 142.344 70.1501 142.327C72.3947 142.312 74.2271 144.119 74.2427 146.364C74.2584 148.609 72.4514 150.441 70.2068 150.456Z" fill="#06122C" stroke="#06122C" stroke-width="0.763889" stroke-miterlimit="10"/>
<path d="M93.0671 5.36929L117.273 5.20029C119.289 5.18622 120.934 6.80858 120.947 8.82392C120.962 10.8393 119.339 12.4844 117.324 12.4985L93.118 12.6675C91.1026 12.6816 89.4575 11.0592 89.4434 9.04387C89.4293 7.02852 91.0516 5.38335 93.0671 5.36929Z" fill="#9BCDFB" stroke="#06122C" stroke-width="0.763889" stroke-miterlimit="10"/>
<path d="M134.634 49.7974L135.184 128.628" stroke="#06122C" stroke-width="0.763889" stroke-miterlimit="10"/>
<path d="M119.127 49.9062L119.677 128.737" stroke="#06122C" stroke-width="0.763889" stroke-miterlimit="10"/>
<path d="M103.622 50.0142L104.173 128.845" stroke="#06122C" stroke-width="0.763889" stroke-miterlimit="10"/>
<path d="M88.112 50.1226L88.6624 128.954" stroke="#06122C" stroke-width="0.763889" stroke-miterlimit="10"/>
<path d="M67.3065 50.2664L67.8569 129.097" stroke="#06122C" stroke-width="0.763889" stroke-miterlimit="10"/>
<path d="M230.015 70.9667L135.026 71.6298C132.122 71.6501 129.785 74.0208 129.805 76.9248L130.284 145.672C130.305 148.576 132.675 150.915 135.58 150.894L230.567 150.231C233.472 150.211 235.81 147.84 235.79 144.936L235.309 76.1883C235.289 73.2842 232.918 70.9464 230.015 70.9667Z" fill="#FBE62E" stroke="#06122C" stroke-width="0.763889" stroke-miterlimit="10"/>
<path d="M221.216 71.0285L126.227 71.6916C123.323 71.7118 120.986 74.0826 121.006 76.9866L121.486 145.734C121.506 148.638 123.877 150.976 126.781 150.956L221.768 150.293C224.673 150.272 227.011 147.902 226.991 144.997L226.51 76.25C226.49 73.346 224.119 71.0082 221.216 71.0285Z" fill="#FBE62E" stroke="#06122C" stroke-width="0.763889" stroke-miterlimit="10"/>
<path d="M129.26 91.9852L174.018 118.203L218.464 91.2947" stroke="#06122C" stroke-width="0.763889" stroke-linecap="round" stroke-linejoin="round"/>
<path d="M176.398 50.5287C175.363 50.367 174.318 50.2865 173.271 50.2881C167.682 50.3272 162.337 52.585 158.411 56.565C154.487 60.545 152.304 65.9212 152.343 71.5108L159.566 71.4603C159.54 67.7863 160.975 64.2527 163.555 61.6366C166.134 59.0206 169.648 57.5365 173.322 57.5109C174.374 57.5064 175.423 57.6241 176.449 57.8616C179.505 58.5412 182.241 60.2366 184.21 62.6713C186.179 65.1059 187.264 68.1359 187.288 71.2668L194.52 71.2164C194.481 66.168 192.631 61.3016 189.304 57.5041C185.977 53.7066 181.397 51.231 176.398 50.5287Z" fill="#FBE62E" stroke="#06122C" stroke-width="0.763889" stroke-miterlimit="10"/>
<path d="M178.035 108.503L169.922 108.561C169.202 108.566 168.623 109.154 168.628 109.874L168.719 122.939C168.724 123.659 169.312 124.239 170.032 124.234L178.144 124.177C178.865 124.172 179.444 123.585 179.438 122.864L179.348 109.798C179.343 109.078 178.755 108.499 178.035 108.503Z" fill="#F5E644" stroke="#06122C" stroke-width="0.763889" stroke-linecap="round" stroke-linejoin="round"/>
<path d="M230.015 70.9669L135.026 71.6301C132.122 71.6503 129.785 74.021 129.805 76.9251L130.284 145.672C130.305 148.577 132.675 150.915 135.58 150.895L230.567 150.231C233.472 150.211 235.81 147.84 235.79 144.936L235.309 76.1885C235.289 73.2844 232.918 70.9466 230.015 70.9669Z" fill="#FBE62E" stroke="#06122C" stroke-width="0.763889" stroke-miterlimit="10"/>
<path d="M221.216 71.0287L126.227 71.6919C123.323 71.7121 120.986 74.0827 121.006 76.9868L121.486 145.734C121.506 148.638 123.877 150.977 126.781 150.956L221.768 150.293C224.673 150.273 227.011 147.902 226.991 144.997L226.51 76.2503C226.49 73.3461 224.119 71.0084 221.216 71.0287Z" fill="#FBE62E" stroke="#06122C" stroke-width="0.763889" stroke-miterlimit="10"/>
<path d="M129.26 91.9854L174.018 118.203L218.464 91.2949" stroke="#06122C" stroke-width="0.763889" stroke-linecap="round" stroke-linejoin="round"/>
<path d="M176.398 50.5287C175.363 50.367 174.318 50.2865 173.271 50.2881C167.682 50.3272 162.337 52.585 158.411 56.565C154.487 60.545 152.304 65.9212 152.343 71.5108L159.566 71.4603C159.54 67.7863 160.975 64.2527 163.555 61.6366C166.134 59.0206 169.648 57.5365 173.322 57.5109C174.374 57.5064 175.423 57.6241 176.449 57.8616C179.505 58.5412 182.241 60.2366 184.21 62.6713C186.179 65.1059 187.264 68.1359 187.288 71.2668L194.52 71.2164C194.481 66.168 192.631 61.3016 189.304 57.5041C185.977 53.7066 181.397 51.231 176.398 50.5287Z" fill="#FBE62E" stroke="#06122C" stroke-width="0.763889" stroke-miterlimit="10"/>
<path d="M178.035 108.504L169.922 108.561C169.202 108.566 168.623 109.154 168.628 109.874L168.719 122.939C168.724 123.659 169.312 124.239 170.032 124.234L178.144 124.178C178.865 124.172 179.444 123.585 179.438 122.865L179.348 109.799C179.343 109.078 178.755 108.499 178.035 108.504Z" fill="#F78400" stroke="#06122C" stroke-width="0.763889" stroke-linecap="round" stroke-linejoin="round"/>
<path d="M138.166 85.2284L96.7255 85.5177C94.148 85.5358 92.0729 87.6337 92.0908 90.2037L92.4811 146.111C92.499 148.681 94.6032 150.75 97.181 150.732L138.622 150.443C141.199 150.425 143.275 148.327 143.257 145.757L142.866 89.8492C142.848 87.2792 140.744 85.2104 138.166 85.2284Z" fill="#9BCDFB" stroke="#06122C" stroke-width="0.763889" stroke-linecap="round" stroke-linejoin="round"/>
<path d="M133.77 85.2591L92.33 85.5485C89.7523 85.5665 87.6772 87.6644 87.6951 90.2345L88.0854 146.142C88.1033 148.713 90.2075 150.781 92.7854 150.763L134.226 150.473C136.804 150.455 138.879 148.357 138.861 145.788L138.47 89.88C138.453 87.31 136.348 85.2412 133.77 85.2591Z" fill="#E9F1FF" stroke="#06122C" stroke-width="0.763889" stroke-linecap="round" stroke-linejoin="round"/>
<path d="M94.7774 142.169L94.8107 146.944" stroke="#06122C" stroke-width="0.763889" stroke-linecap="round" stroke-linejoin="round"/>
<path d="M94.3821 85.5342L94.7223 134.273L94.7469 137.798" fill="white"/>
<path d="M94.3821 85.5342L94.7223 134.273L94.7469 137.798" stroke="#06122C" stroke-width="0.763889" stroke-linecap="round" stroke-linejoin="round"/>
<path d="M116.044 130.821C122.729 130.775 128.112 125.334 128.065 118.668C128.018 112.003 122.561 106.638 115.875 106.684C109.19 106.73 103.808 112.172 103.855 118.837C103.901 125.503 109.358 130.868 116.044 130.821Z" stroke="#06122C" stroke-width="0.763889" stroke-linecap="round" stroke-linejoin="round"/>
<path d="M103.839 118.838L128.066 118.669" stroke="#06122C" stroke-width="0.763889" stroke-linecap="round" stroke-linejoin="round"/>
<path d="M115.877 106.683L116.046 130.821" stroke="#06122C" stroke-width="0.763889" stroke-linecap="round" stroke-linejoin="round"/>
<path d="M116.041 130.807L115.963 130.808L115.533 130.463C113.835 129.146 112.45 127.469 111.479 125.553C109.89 122.499 109.411 118.99 110.122 115.623C110.835 112.256 112.695 109.238 115.385 107.083L115.81 106.749L115.89 106.748" stroke="#06122C" stroke-width="0.763889" stroke-linecap="round" stroke-linejoin="round"/>
<path d="M116.376 130.803H116.471C118.235 129.47 119.687 127.769 120.724 125.819C122.413 122.641 122.896 118.963 122.084 115.459C121.272 111.955 119.219 108.861 116.303 106.745H116.208" stroke="#06122C" stroke-width="0.763889" stroke-linecap="round" stroke-linejoin="round"/>
<path d="M123.979 109.69C122.967 110.508 121.835 111.165 120.622 111.638C119.111 112.23 117.504 112.541 115.881 112.555C112.95 112.583 110.093 111.637 107.76 109.866" stroke="#06122C" stroke-width="0.763889" stroke-linecap="round" stroke-linejoin="round"/>
<path d="M107.857 127.726C109.088 126.763 110.482 126.026 111.972 125.551C113.247 125.129 114.58 124.912 115.924 124.908C117.548 124.905 119.159 125.198 120.677 125.774C121.897 126.23 123.038 126.872 124.061 127.675" stroke="#06122C" stroke-width="0.763889" stroke-linecap="round" stroke-linejoin="round"/>
<path d="M206.186 37.4318L208.167 35.0271C209.823 32.9193 212.668 32.1136 215.183 33.0395L218.131 34.0477L215.726 32.0662C213.619 30.4103 212.813 27.5663 213.739 25.0509L214.747 22.1025L212.766 24.5074C211.11 26.615 208.266 27.4207 205.751 26.4948L202.802 25.4867L205.206 27.4681C207.315 29.124 208.121 31.9681 207.194 34.4835L206.186 37.4318Z" fill="white" stroke="#06122C" stroke-width="0.763889" stroke-miterlimit="10" stroke-linejoin="round"/>
</g>
</g>
<defs>
<clipPath id="clip0_16_311">
<rect width="275" height="152.778" fill="white" transform="translate(0 0.431396)"/>
</clipPath>
</defs>
</svg>
